<?xml version="1.0" encoding="UTF-8"?><svg id="Layer_1" xmlns="http://www.w3.org/2000/svg" viewBox="0 0 354.3 369.99"><defs><style>.cls-1{fill:#6f37a3;}.cls-2{stroke-width:4.12px;}.cls-2,.cls-3{stroke:#161521;stroke-linejoin:round;}.cls-2,.cls-3,.cls-4{fill:none;}.cls-3{stroke-width:3.96px;}.cls-5{fill:#ff945e;}.cls-4{stroke:#fff;stroke-width:6px;}.cls-6{fill:#38a0a0;}.cls-7{fill:#922748;}.cls-8{fill:#ffd364;}.cls-9{fill:#ce92fc;}</style></defs><path class="cls-6" d="M302.67,62.26c11.71-3.25,18.57-15.38,15.33-27.09-3.25-11.71-15.38-18.57-27.09-15.33-11.71,3.25-18.57,15.38-15.33,27.09,1.36,4.91,4.29,8.97,8.1,11.79l-4.8,18.57-37.64,10.44-13.68-13.44c1.81-4.37,2.23-9.36.87-14.27-3.25-11.71-15.38-18.57-27.09-15.33s-18.57,15.38-15.33,27.09c3.25,11.71,15.38,18.57,27.09,15.33.99-.28,1.95-.62,2.87-1.02l13.68,13.45-12.23,47.28,35.3,34.69-5.64,21.81c-.99.13-1.99.33-2.98.61-11.71,3.25-18.57,15.38-15.33,27.09s15.38,18.57,27.09,15.33,18.57-15.38,15.33-27.09c-1.36-4.91-4.29-8.97-8.1-11.79l5.8-22.44,46.44-12.88,14.62-56.53-35-34.4,4.74-18.34c.99-.13,1.99-.33,2.98-.61ZM294.56,33.03c4.43-1.23,9.02,1.37,10.24,5.8,1.23,4.43-1.37,9.02-5.8,10.24s-9.02-1.37-10.24-5.8,1.37-9.02,5.8-10.24ZM199.2,68.11c-1.23-4.43,1.37-9.02,5.8-10.24s9.02,1.37,10.24,5.8-1.37,9.02-5.8,10.24-9.02-1.37-10.24-5.8ZM252.2,233.13c-4.43,1.23-9.02-1.37-10.24-5.8-1.23-4.43,1.37-9.02,5.8-10.24,4.43-1.23,9.02,1.37,10.24,5.8s-1.37,9.02-5.8,10.24ZM301.82,158.85l-38.01,10.54-28.13-27.65,9.88-38.19,38.01-10.54,28.13,27.65-9.88,38.19Z"/><rect class="cls-6" x="255.8" y="107.42" width="24.56" height="7.17" transform="translate(-19.91 75.67) rotate(-15.5)"/><rect class="cls-6" x="256.8" y="135.61" width="7.17" height="24.56" transform="translate(-27.61 229.95) rotate(-45.5)"/><rect class="cls-6" x="281.41" y="135.07" width="24.56" height="7.17" transform="translate(85.91 388.27) rotate(-75.5)"/><path class="cls-2" d="M302.19,62.21c11.71-3.25,18.57-15.38,15.33-27.09-3.25-11.71-15.38-18.57-27.09-15.33-11.71,3.25-18.57,15.38-15.33,27.09,1.36,4.91,4.29,8.97,8.1,11.79l-4.8,18.57-37.64,10.44-13.68-13.44c1.81-4.37,2.23-9.36.87-14.27-3.25-11.71-15.38-18.57-27.09-15.33s-18.57,15.38-15.33,27.09c3.25,11.71,15.38,18.57,27.09,15.33.99-.28,1.95-.62,2.87-1.02l13.68,13.45-12.23,47.28,35.3,34.69-5.64,21.81c-.99.13-1.99.33-2.98.61-11.71,3.25-18.57,15.38-15.33,27.09s15.38,18.57,27.09,15.33,18.57-15.38,15.33-27.09c-1.36-4.91-4.29-8.97-8.1-11.79l5.8-22.44,46.44-12.88,14.62-56.53-35-34.4,4.74-18.34c.99-.13,1.99-.33,2.98-.61ZM294.08,32.98c4.43-1.23,9.02,1.37,10.24,5.8,1.23,4.43-1.37,9.02-5.8,10.24-4.43,1.23-9.02-1.37-10.24-5.8-1.23-4.43,1.37-9.02,5.8-10.24ZM198.71,68.07c-1.23-4.43,1.37-9.02,5.8-10.24,4.43-1.23,9.02,1.37,10.24,5.8s-1.37,9.02-5.8,10.24c-4.43,1.23-9.02-1.37-10.24-5.8ZM251.72,233.09c-4.43,1.23-9.02-1.37-10.24-5.8-1.23-4.43,1.37-9.02,5.8-10.24,4.43-1.23,9.02,1.37,10.24,5.8,1.23,4.43-1.37,9.02-5.8,10.24ZM301.33,158.81l-38.01,10.54-28.13-27.65,9.88-38.19,38.01-10.54,28.13,27.65-9.88,38.19Z"/><rect class="cls-2" x="255.32" y="107.38" width="24.56" height="7.17" transform="translate(-19.92 75.54) rotate(-15.5)"/><rect class="cls-2" x="256.32" y="135.57" width="7.17" height="24.56" transform="translate(-27.72 229.59) rotate(-45.5)"/><rect class="cls-2" x="280.92" y="135.03" width="24.56" height="7.17" transform="translate(85.59 387.77) rotate(-75.5)"/><path class="cls-8" d="M295.58,57.94c11.71-3.25,18.57-15.38,15.33-27.09-3.25-11.71-15.38-18.57-27.09-15.33-11.71,3.25-18.57,15.38-15.33,27.09,1.36,4.91,4.29,8.97,8.1,11.79l-4.8,18.57-37.64,10.44-13.68-13.44c1.81-4.37,2.23-9.36.87-14.27-3.25-11.71-15.38-18.57-27.09-15.33s-18.57,15.38-15.33,27.09c3.25,11.71,15.38,18.57,27.09,15.33.99-.28,1.95-.62,2.87-1.02l13.68,13.45-12.23,47.28,35.3,34.69-5.64,21.81c-.99.13-1.99.33-2.98.61-11.71,3.25-18.57,15.38-15.33,27.09s15.38,18.57,27.09,15.33c11.71-3.25,18.57-15.38,15.33-27.09-1.36-4.91-4.29-8.97-8.1-11.79l5.8-22.44,46.44-12.88,14.62-56.53-35-34.4,4.74-18.34c.99-.13,1.99-.33,2.98-.61ZM287.48,28.71c4.43-1.23,9.02,1.37,10.24,5.8,1.23,4.43-1.37,9.02-5.8,10.24-4.43,1.23-9.02-1.37-10.24-5.8-1.23-4.43,1.37-9.02,5.8-10.24ZM192.11,63.8c-1.23-4.43,1.37-9.02,5.8-10.24s9.02,1.37,10.24,5.8-1.37,9.02-5.8,10.24c-4.43,1.23-9.02-1.37-10.24-5.8ZM245.11,228.82c-4.43,1.23-9.02-1.37-10.24-5.8-1.23-4.43,1.37-9.02,5.8-10.24,4.43-1.23,9.02,1.37,10.24,5.8,1.23,4.43-1.37,9.02-5.8,10.24ZM294.73,154.54l-38.01,10.54-28.13-27.65,9.88-38.19,38.01-10.54,28.13,27.65-9.88,38.19Z"/><rect class="cls-8" x="248.71" y="103.11" width="24.56" height="7.17" transform="translate(-19.02 73.62) rotate(-15.5)"/><rect class="cls-8" x="249.72" y="131.3" width="7.17" height="24.56" transform="translate(-26.65 223.6) rotate(-45.5)"/><rect class="cls-8" x="274.32" y="130.76" width="24.56" height="7.17" transform="translate(84.77 378.17) rotate(-75.5)"/><path class="cls-2" d="M295.1,57.9c11.71-3.25,18.57-15.38,15.33-27.09-3.25-11.71-15.38-18.57-27.09-15.33-11.71,3.25-18.57,15.38-15.33,27.09,1.36,4.91,4.29,8.97,8.1,11.79l-4.8,18.57-37.64,10.44-13.68-13.44c1.81-4.37,2.23-9.36.87-14.27-3.25-11.71-15.38-18.57-27.09-15.33s-18.57,15.38-15.33,27.09c3.25,11.71,15.38,18.57,27.09,15.33.99-.28,1.95-.62,2.87-1.02l13.68,13.45-12.23,47.28,35.3,34.69-5.64,21.81c-.99.13-1.99.33-2.98.61-11.71,3.25-18.57,15.38-15.33,27.09s15.38,18.57,27.09,15.33,18.57-15.38,15.33-27.09c-1.36-4.91-4.29-8.97-8.1-11.79l5.8-22.44,46.44-12.88,14.62-56.53-35-34.4,4.74-18.34c.99-.13,1.99-.33,2.98-.61ZM287,28.67c4.43-1.23,9.02,1.37,10.24,5.8,1.23,4.43-1.37,9.02-5.8,10.24-4.43,1.23-9.02-1.37-10.24-5.8s1.37-9.02,5.8-10.24ZM191.63,63.76c-1.23-4.43,1.37-9.02,5.8-10.24,4.43-1.23,9.02,1.37,10.24,5.8s-1.37,9.02-5.8,10.24c-4.43,1.23-9.02-1.37-10.24-5.8ZM244.63,228.78c-4.43,1.23-9.02-1.37-10.24-5.8s1.37-9.02,5.8-10.24c4.43-1.23,9.02,1.37,10.24,5.8,1.23,4.43-1.37,9.02-5.8,10.24ZM294.25,154.5l-38.01,10.54-28.13-27.65,9.88-38.19,38.01-10.54,28.13,27.65-9.88,38.19Z"/><rect class="cls-2" x="248.23" y="103.07" width="24.56" height="7.17" transform="translate(-19.03 73.49) rotate(-15.5)"/><rect class="cls-2" x="249.23" y="131.26" width="7.17" height="24.56" transform="translate(-26.76 223.25) rotate(-45.5)"/><rect class="cls-2" x="273.84" y="130.72" width="24.56" height="7.17" transform="translate(84.45 377.67) rotate(-75.5)"/><path class="cls-1" d="M149.85,333.5l4.6,16.03.07-.3,37.86-11.07,28.47,27.2,11.29-11.91-28.83-27.55,5.33-21.88c.99-.15,1.98-.36,2.97-.65,11.67-3.41,18.36-15.63,14.95-27.3-3.41-11.67-15.63-18.36-27.3-14.95-11.67,3.41-18.36,15.63-14.95,27.3,1.43,4.89,4.42,8.91,8.26,11.67l-5.49,22.51-37.23,10.89ZM203.1,274.26c4.41-1.29,9.03,1.24,10.33,5.65,1.29,4.41-1.24,9.03-5.65,10.32-4.41,1.29-9.03-1.24-10.32-5.65-1.29-4.41,1.24-9.04,5.65-10.32Z"/><path class="cls-2" d="M149.87,333.19l4.6,16.03.07-.3,37.86-11.07,28.47,27.2,11.29-11.91-28.83-27.55,5.33-21.88c.99-.15,1.98-.36,2.97-.65,11.67-3.41,18.36-15.63,14.95-27.3-3.41-11.67-15.63-18.36-27.3-14.95-11.67,3.41-18.36,15.63-14.95,27.3,1.43,4.89,4.42,8.91,8.26,11.67l-5.49,22.51-37.23,10.89ZM203.12,273.95c4.41-1.29,9.03,1.24,10.33,5.65,1.29,4.41-1.24,9.03-5.65,10.32-4.41,1.29-9.03-1.24-10.32-5.65-1.29-4.41,1.24-9.04,5.65-10.32Z"/><path class="cls-9" d="M143.72,329.21l4.6,16.03.07-.3,37.86-11.07,28.47,27.2,11.29-11.91-28.83-27.55,5.33-21.88c.99-.15,1.98-.36,2.97-.65,11.67-3.41,18.36-15.63,14.95-27.3-3.41-11.67-15.63-18.36-27.3-14.95-11.67,3.41-18.36,15.63-14.95,27.3,1.43,4.89,4.42,8.91,8.26,11.67l-5.49,22.51-37.23,10.89ZM196.97,269.97c4.41-1.29,9.03,1.24,10.33,5.65,1.29,4.41-1.24,9.03-5.65,10.32-4.41,1.29-9.03-1.24-10.32-5.65-1.29-4.41,1.24-9.04,5.65-10.32Z"/><path class="cls-2" d="M143.75,328.9l4.6,16.03.07-.3,37.86-11.07,28.47,27.2,11.29-11.91-28.83-27.55,5.33-21.88c.99-.15,1.98-.36,2.97-.65,11.67-3.41,18.36-15.63,14.95-27.3-3.41-11.67-15.63-18.36-27.3-14.95-11.67,3.41-18.36,15.63-14.95,27.3,1.43,4.89,4.42,8.91,8.26,11.67l-5.49,22.51-37.23,10.89ZM197,269.66c4.41-1.29,9.03,1.24,10.33,5.65,1.29,4.41-1.24,9.03-5.65,10.32-4.41,1.29-9.03-1.24-10.32-5.65-1.29-4.41,1.24-9.04,5.65-10.32Z"/><path class="cls-4" d="M41.46,240.76c-2.37,2.14-4.95,3.77-7.74,4.9-2.79,1.13-5.66,1.69-8.61,1.69-4.31,0-7.78-1.2-10.43-3.6-2.65-2.4-3.97-5.52-3.97-9.37,0-4.57,1.76-8.11,5.27-10.62s8.45-3.77,14.81-3.77c1.68,0,3.37.11,5.07.33,1.71.22,3.45.56,5.25,1.02v-.3c0-3.32-.8-5.78-2.39-7.37-1.59-1.59-4.06-2.38-7.42-2.38-2.25,0-4.77.61-7.55,1.82s-4.61,1.82-5.51,1.82c-.84,0-1.53-.34-2.08-1.02-.55-.68-.82-1.55-.82-2.62,0-1.71,1.6-3.15,4.79-4.34,3.19-1.18,7.28-1.78,12.25-1.78s8.93,1.29,11.54,3.88c2.6,2.59,3.9,6.41,3.9,11.47v19.64h2.12c2.05,0,3.43.22,4.12.65.69.43,1.04,1.21,1.04,2.34,0,1.04-.29,1.82-.87,2.34-.58.52-1.45.78-2.6.78h-6.81c-.81,0-1.47-.25-2-.74-.52-.49-.87-1.2-1.04-2.12l-.35-2.65ZM41.12,227.1c-1.59-.52-3.13-.9-4.62-1.15-1.49-.25-2.97-.37-4.45-.37-4.45,0-7.96.75-10.54,2.25-2.57,1.5-3.86,3.53-3.86,6.07,0,1.97.8,3.58,2.41,4.86,1.61,1.27,3.65,1.91,6.14,1.91,3.67,0,7.08-.96,10.21-2.88,3.14-1.92,4.71-3.92,4.71-6.01v-4.68Z"/><path class="cls-4" d="M68.65,240.15v-27.8h-.82c-1.97,0-3.32-.23-4.05-.69-.74-.46-1.11-1.27-1.11-2.43,0-1.07.3-1.84.91-2.32.61-.48,1.59-.72,2.95-.72h6.2c.78,0,1.39.16,1.82.48s.65.75.65,1.3v2.95c2.11-1.97,4.2-3.42,6.27-4.36,2.07-.94,4.21-1.41,6.44-1.41,4.37,0,7.8,1.36,10.3,4.08s3.75,6.48,3.75,11.28v19.64h2.05c1.46,0,2.5.24,3.14.71.64.48.96,1.24.96,2.28,0,1.13-.34,1.93-1.02,2.41-.68.48-1.89.72-3.63.72h-9.61c-1.86,0-3.04-.22-3.56-.65-.52-.43-.78-1.26-.78-2.47,0-1.13.31-1.91.92-2.34s1.76-.65,3.45-.65h1.53v-18.04c0-3.38-.77-5.96-2.3-7.74s-3.77-2.67-6.69-2.67-5.56,1-7.82,2.99-3.39,4.47-3.39,7.42v18.04h1.52c1.73,0,2.91.22,3.51.65s.91,1.21.91,2.34c0,1.21-.26,2.04-.78,2.47s-1.79.65-3.82.65h-10.23c-1.19,0-2.07-.25-2.67-.76s-.89-1.29-.89-2.36c0-1.16.34-1.94,1.02-2.36.68-.42,2-.63,3.97-.63h.91Z"/><path class="cls-4" d="M148.06,240.76c-2.37,2.14-4.95,3.77-7.74,4.9-2.79,1.13-5.66,1.69-8.61,1.69-4.31,0-7.78-1.2-10.43-3.6-2.65-2.4-3.97-5.52-3.97-9.37,0-4.57,1.76-8.11,5.27-10.62s8.45-3.77,14.81-3.77c1.68,0,3.37.11,5.07.33,1.71.22,3.45.56,5.25,1.02v-.3c0-3.32-.8-5.78-2.39-7.37-1.59-1.59-4.06-2.38-7.42-2.38-2.25,0-4.77.61-7.55,1.82s-4.61,1.82-5.51,1.82c-.84,0-1.53-.34-2.08-1.02-.55-.68-.82-1.55-.82-2.62,0-1.71,1.6-3.15,4.79-4.34,3.19-1.18,7.28-1.78,12.25-1.78s8.93,1.29,11.54,3.88c2.6,2.59,3.9,6.41,3.9,11.47v19.64h2.12c2.05,0,3.43.22,4.12.65.69.43,1.04,1.21,1.04,2.34,0,1.04-.29,1.82-.87,2.34-.58.52-1.45.78-2.6.78h-6.81c-.81,0-1.47-.25-2-.74-.52-.49-.87-1.2-1.04-2.12l-.35-2.65ZM147.71,227.1c-1.59-.52-3.13-.9-4.62-1.15-1.49-.25-2.97-.37-4.45-.37-4.45,0-7.96.75-10.54,2.25-2.57,1.5-3.86,3.53-3.86,6.07,0,1.97.8,3.58,2.41,4.86,1.61,1.27,3.65,1.91,6.14,1.91,3.67,0,7.08-.96,10.21-2.88,3.14-1.92,4.71-3.92,4.71-6.01v-4.68Z"/><path class="cls-4" d="M207.73,228.79c0-2.17.22-3.57.65-4.21s1.26-.95,2.47-.95c1.04,0,1.82.27,2.34.8.52.54.78,1.37.78,2.49v16.13c0,1.01-.27,1.8-.82,2.36-.55.56-1.32.85-2.3.85h-40.5c-1.04,0-1.82-.26-2.34-.78-.52-.52-.78-1.3-.78-2.34,0-1.16.31-1.94.93-2.36.62-.42,2.03-.63,4.23-.63h5.42v-39.07h-5.42c-2.14,0-3.54-.22-4.19-.67s-.98-1.26-.98-2.45c0-1.07.27-1.86.8-2.36.53-.51,1.37-.76,2.49-.76h23.46c1.04,0,1.84.26,2.38.78s.82,1.3.82,2.34c0,1.19-.33,2-.98,2.45s-2.08.67-4.27.67h-7.29v39.07h23.07v-11.36Z"/><path class="cls-4" d="M315.62,243.96c0,4.05-.2,6.92-.61,8.61s-1.11,3.17-2.09,4.45c-1.63,2.14-3.91,3.77-6.83,4.88-2.92,1.11-6.37,1.67-10.33,1.67-3.3,0-5.7-.32-7.22-.95s-2.28-1.65-2.28-3.04c0-.9.37-1.68,1.11-2.36.74-.68,1.61-1.02,2.62-1.02.78,0,1.98.11,3.6.33,1.62.22,2.85.33,3.69.33,4.28,0,7.31-.98,9.11-2.95,1.79-1.97,2.69-5.33,2.69-10.1v-5.25c-1.76,2.05-3.72,3.56-5.85,4.51-2.14.95-4.6,1.43-7.37,1.43-5.41,0-9.88-1.8-13.42-5.4-3.54-3.6-5.31-8.16-5.31-13.68s1.82-10.15,5.46-13.81,8.15-5.49,13.53-5.49c2.23,0,4.4.41,6.53,1.24s4.27,2.08,6.44,3.75v-3.12c0-.61.2-1.05.58-1.34.39-.29,1-.43,1.84-.43h6.55c1.16,0,2.02.25,2.6.76.58.51.87,1.27.87,2.28,0,1.16-.36,1.97-1.08,2.43-.72.46-2.07.69-4.05.69h-.78v31.61ZM296.76,212.61c-3.79,0-6.88,1.17-9.28,3.51-2.4,2.34-3.6,5.38-3.6,9.11s1.2,6.69,3.6,9.04,5.49,3.53,9.28,3.53,6.84-1.18,9.26-3.53,3.62-5.37,3.62-9.04-1.21-6.69-3.62-9.06c-2.41-2.37-5.5-3.56-9.26-3.56Z"/><path class="cls-4" d="M58.89,323.33h-16.28c-.85,0-1.48-.22-1.91-.65-.42-.44-.64-1.09-.64-1.96,0-.97.27-1.63.8-1.98.53-.35,1.8-.53,3.82-.53h1.2v-32.75h-1.2c-1.87,0-3.06-.19-3.6-.56-.53-.38-.8-1.06-.8-2.05,0-.85.22-1.5.65-1.94.44-.45,1.07-.67,1.89-.67h16.97c5.14,0,9.05,1,11.74,3,2.69,2,4.03,4.9,4.03,8.7,0,1.91-.41,3.59-1.24,5.01-.82,1.43-2.05,2.61-3.67,3.53,2.62.95,4.56,2.27,5.83,3.96,1.27,1.7,1.91,3.85,1.91,6.47,0,2.21-.55,4.22-1.64,6.03-1.09,1.82-2.63,3.31-4.62,4.47-1.19.68-2.51,1.17-3.96,1.47s-3.51.45-6.18.45h-3.12ZM51.59,298.83h7.6c3.44,0,5.99-.55,7.65-1.64,1.66-1.09,2.49-2.77,2.49-5.05,0-2.16-.75-3.81-2.25-4.96-1.5-1.15-3.66-1.73-6.47-1.73h-9.01v13.38ZM51.59,318.2h8.07c4.55,0,7.77-.58,9.63-1.73,1.87-1.15,2.8-3.06,2.8-5.72s-.89-4.6-2.67-5.74c-1.78-1.14-4.91-1.71-9.4-1.71h-8.43v14.9Z"/><path class="cls-4" d="M94.95,309.92c0,3.05.64,5.28,1.93,6.69,1.28,1.41,3.32,2.11,6.11,2.11,2.64,0,4.9-.84,6.78-2.51,1.88-1.67,2.82-3.77,2.82-6.3v-15.03h-4.98c-.95,0-1.63-.2-2.05-.59-.42-.4-.64-1.02-.64-1.86,0-.92.23-1.59.69-2.02.46-.43,1.2-.65,2.22-.65h7.74c.92,0,1.57.2,1.94.6.38.4.56,1.38.56,2.93v24.93h1.67c1.19,0,2.04.19,2.56.58.52.39.78,1.03.78,1.93s-.25,1.53-.75,1.96c-.5.44-1.22.65-2.16.65h-5.52c-.65,0-1.16-.13-1.53-.4-.36-.27-.54-.63-.54-1.09v-2.47c-2.33,1.79-4.32,3.02-5.98,3.69s-3.41,1-5.25,1c-4,0-7-1.06-9-3.18s-3-5.33-3-9.62v-16.38h-.76c-1.65,0-2.77-.19-3.38-.58-.61-.38-.91-1.06-.91-2.02,0-.84.24-1.47.71-1.89.47-.42,1.21-.63,2.2-.63h5.49c.85,0,1.44.17,1.76.51.33.34.49,1.09.49,2.25v17.41Z"/><path class="cls-4" d="M152.04,318.2h11.67c.94,0,1.64.2,2.09.6.45.4.67,1.04.67,1.91,0,.99-.21,1.68-.64,2.05-.42.38-1.21.56-2.34.56h-28.17c-.97,0-1.7-.22-2.18-.65-.48-.44-.73-1.09-.73-1.96s.25-1.48.76-1.89c.51-.41,1.27-.62,2.29-.62h11.08v-23.33h-7.11c-1,0-1.76-.22-2.28-.67-.52-.45-.79-1.09-.79-1.93s.24-1.47.73-1.89c.48-.42,1.21-.63,2.18-.63h10.65c.65,0,1.17.13,1.54.4.38.27.56.63.56,1.09v26.97ZM145.32,279.28c0-2.62.24-4.26.71-4.94.47-.68,1.48-1.02,3.04-1.02s2.5.29,2.98.85.73,1.92.73,4.05-.22,3.38-.67,3.87c-.45.5-1.46.75-3.03.75s-2.56-.23-3.04-.69-.71-1.42-.71-2.87Z"/><path class="cls-4" d="M248.93,323.33c-.51,0-.87-.13-1.07-.38-.21-.25-.31-.75-.31-1.47v-2.98c-1.45,1.82-3.27,3.23-5.45,4.23s-4.54,1.51-7.09,1.51c-4.58,0-8.41-1.63-11.5-4.89s-4.63-7.31-4.63-12.16,1.65-9.19,4.94-12.52c3.29-3.33,7.4-5,12.32-5,2.5,0,4.74.44,6.72,1.33s3.69,2.19,5.12,3.91v-13.92h-1.93c-2.11,0-3.47-.19-4.09-.56-.62-.38-.93-1.06-.93-2.05,0-.87.25-1.53.75-1.96.5-.44,1.22-.65,2.16-.65h7.45c.73,0,1.25.12,1.58.36s.49.62.49,1.13v40.96h1.64c1.19,0,2.05.2,2.58.6.53.4.8,1.04.8,1.91,0,.82-.23,1.47-.69,1.93-.46.46-1.08.69-1.85.69h-7.01ZM225.13,307.01c0,3.34,1.08,6.08,3.23,8.21s4.89,3.2,8.21,3.2,6.09-1.11,8.25-3.33c2.16-2.22,3.23-5.03,3.23-8.45s-1.07-6.14-3.22-8.32c-2.14-2.18-4.9-3.27-8.27-3.27s-6.18,1.1-8.29,3.31c-2.11,2.21-3.16,5.09-3.16,8.65Z"/><path class="cls-4" d="M270.38,308.14c.19,3.5,1.38,6.21,3.54,8.11,2.17,1.91,5.13,2.86,8.89,2.86,2.83,0,5.92-.76,9.27-2.27,3.34-1.51,5.37-2.27,6.07-2.27s1.33.23,1.82.69c.48.46.73,1.03.73,1.71s-.25,1.34-.76,1.92c-.51.58-1.32,1.15-2.44,1.7-2.42,1.18-4.92,2.08-7.5,2.71-2.58.62-5.14.94-7.69.94-5.52,0-9.95-1.59-13.26-4.78-3.32-3.19-4.98-7.41-4.98-12.67s1.76-9.69,5.27-13.01,8.09-4.98,13.74-4.98c5.11,0,9.35,1.55,12.72,4.65,3.37,3.1,5.05,6.86,5.05,11.27,0,1.36-.29,2.27-.85,2.73-.57.46-2.11.69-4.63.69h-24.97ZM270.56,303.37h23.66c-.36-2.88-1.57-5.2-3.62-6.96-2.05-1.76-4.56-2.63-7.54-2.63-3.22,0-5.94.85-8.14,2.54-2.2,1.7-3.66,4.05-4.36,7.05Z"/><path class="cls-4" d="M323.76,318.2h12.07c.94,0,1.64.2,2.09.6.45.4.67,1.04.67,1.91,0,.99-.21,1.68-.64,2.05-.42.38-1.21.56-2.34.56h-23.77c-.95,0-1.66-.22-2.14-.65-.49-.44-.73-1.09-.73-1.96s.25-1.48.75-1.89c.5-.41,1.27-.62,2.31-.62h6.32v-23.33h-2.47c-2.35,0-3.82-.19-4.4-.56-.58-.37-.87-1.05-.87-2.04,0-.84.24-1.47.71-1.89.47-.42,1.19-.63,2.16-.63h8.29c.65,0,1.15.13,1.49.38.34.25.51.62.51,1.11v6.18c2.3-2.88,4.7-5.03,7.2-6.43,2.5-1.4,5.18-2.11,8.07-2.11,2.16,0,3.9.43,5.23,1.3,1.33.87,2,1.99,2,3.36,0,.89-.33,1.68-1,2.37s-1.4,1.04-2.2,1.04c-.56,0-1.5-.37-2.82-1.11-1.32-.74-2.5-1.11-3.54-1.11-1.89,0-3.88.67-5.98,2.02-2.1,1.35-4.42,3.48-6.96,6.39v15.07Z"/><path d="M41.46,240.76c-2.37,2.14-4.95,3.77-7.74,4.9-2.79,1.13-5.66,1.69-8.61,1.69-4.31,0-7.78-1.2-10.43-3.6-2.65-2.4-3.97-5.52-3.97-9.37,0-4.57,1.76-8.11,5.27-10.62s8.45-3.77,14.81-3.77c1.68,0,3.37.11,5.07.33,1.71.22,3.45.56,5.25,1.02v-.3c0-3.32-.8-5.78-2.39-7.37-1.59-1.59-4.06-2.38-7.42-2.38-2.25,0-4.77.61-7.55,1.82s-4.61,1.82-5.51,1.82c-.84,0-1.53-.34-2.08-1.02-.55-.68-.82-1.55-.82-2.62,0-1.71,1.6-3.15,4.79-4.34,3.19-1.18,7.28-1.78,12.25-1.78s8.93,1.29,11.54,3.88c2.6,2.59,3.9,6.41,3.9,11.47v19.64h2.12c2.05,0,3.43.22,4.12.65.69.43,1.04,1.21,1.04,2.34,0,1.04-.29,1.82-.87,2.34-.58.52-1.45.78-2.6.78h-6.81c-.81,0-1.47-.25-2-.74-.52-.49-.87-1.2-1.04-2.12l-.35-2.65ZM41.12,227.1c-1.59-.52-3.13-.9-4.62-1.15-1.49-.25-2.97-.37-4.45-.37-4.45,0-7.96.75-10.54,2.25-2.57,1.5-3.86,3.53-3.86,6.07,0,1.97.8,3.58,2.41,4.86,1.61,1.27,3.65,1.91,6.14,1.91,3.67,0,7.08-.96,10.21-2.88,3.14-1.92,4.71-3.92,4.71-6.01v-4.68Z"/><path d="M68.65,240.15v-27.8h-.82c-1.97,0-3.32-.23-4.05-.69-.74-.46-1.11-1.27-1.11-2.43,0-1.07.3-1.84.91-2.32.61-.48,1.59-.72,2.95-.72h6.2c.78,0,1.39.16,1.82.48s.65.75.65,1.3v2.95c2.11-1.97,4.2-3.42,6.27-4.36,2.07-.94,4.21-1.41,6.44-1.41,4.37,0,7.8,1.36,10.3,4.08s3.75,6.48,3.75,11.28v19.64h2.05c1.46,0,2.5.24,3.14.71.64.48.96,1.24.96,2.28,0,1.13-.34,1.93-1.02,2.41-.68.48-1.89.72-3.63.72h-9.61c-1.86,0-3.04-.22-3.56-.65-.52-.43-.78-1.26-.78-2.47,0-1.13.31-1.91.92-2.34s1.76-.65,3.45-.65h1.53v-18.04c0-3.38-.77-5.96-2.3-7.74s-3.77-2.67-6.69-2.67-5.56,1-7.82,2.99-3.39,4.47-3.39,7.42v18.04h1.52c1.73,0,2.91.22,3.51.65s.91,1.21.91,2.34c0,1.21-.26,2.04-.78,2.47s-1.79.65-3.82.65h-10.23c-1.19,0-2.07-.25-2.67-.76s-.89-1.29-.89-2.36c0-1.16.34-1.94,1.02-2.36.68-.42,2-.63,3.97-.63h.91Z"/><path d="M148.06,240.76c-2.37,2.14-4.95,3.77-7.74,4.9-2.79,1.13-5.66,1.69-8.61,1.69-4.31,0-7.78-1.2-10.43-3.6-2.65-2.4-3.97-5.52-3.97-9.37,0-4.57,1.76-8.11,5.27-10.62s8.45-3.77,14.81-3.77c1.68,0,3.37.11,5.07.33,1.71.22,3.45.56,5.25,1.02v-.3c0-3.32-.8-5.78-2.39-7.37-1.59-1.59-4.06-2.38-7.42-2.38-2.25,0-4.77.61-7.55,1.82s-4.61,1.82-5.51,1.82c-.84,0-1.53-.34-2.08-1.02-.55-.68-.82-1.55-.82-2.62,0-1.71,1.6-3.15,4.79-4.34,3.19-1.18,7.28-1.78,12.25-1.78s8.93,1.29,11.54,3.88c2.6,2.59,3.9,6.41,3.9,11.47v19.64h2.12c2.05,0,3.43.22,4.12.65.69.43,1.04,1.21,1.04,2.34,0,1.04-.29,1.82-.87,2.34-.58.52-1.45.78-2.6.78h-6.81c-.81,0-1.47-.25-2-.74-.52-.49-.87-1.2-1.04-2.12l-.35-2.65ZM147.71,227.1c-1.59-.52-3.13-.9-4.62-1.15-1.49-.25-2.97-.37-4.45-.37-4.45,0-7.96.75-10.54,2.25-2.57,1.5-3.86,3.53-3.86,6.07,0,1.97.8,3.58,2.41,4.86,1.61,1.27,3.65,1.91,6.14,1.91,3.67,0,7.08-.96,10.21-2.88,3.14-1.92,4.71-3.92,4.71-6.01v-4.68Z"/><path d="M207.73,228.79c0-2.17.22-3.57.65-4.21s1.26-.95,2.47-.95c1.04,0,1.82.27,2.34.8.52.54.78,1.37.78,2.49v16.13c0,1.01-.27,1.8-.82,2.36-.55.56-1.32.85-2.3.85h-40.5c-1.04,0-1.82-.26-2.34-.78-.52-.52-.78-1.3-.78-2.34,0-1.16.31-1.94.93-2.36.62-.42,2.03-.63,4.23-.63h5.42v-39.07h-5.42c-2.14,0-3.54-.22-4.19-.67s-.98-1.26-.98-2.45c0-1.07.27-1.86.8-2.36.53-.51,1.37-.76,2.49-.76h23.46c1.04,0,1.84.26,2.38.78s.82,1.3.82,2.34c0,1.19-.33,2-.98,2.45s-2.08.67-4.27.67h-7.29v39.07h23.07v-11.36Z"/><path d="M315.62,243.96c0,4.05-.2,6.92-.61,8.61s-1.11,3.17-2.09,4.45c-1.63,2.14-3.91,3.77-6.83,4.88-2.92,1.11-6.37,1.67-10.33,1.67-3.3,0-5.7-.32-7.22-.95s-2.28-1.65-2.28-3.04c0-.9.37-1.68,1.11-2.36.74-.68,1.61-1.02,2.62-1.02.78,0,1.98.11,3.6.33,1.62.22,2.85.33,3.69.33,4.28,0,7.31-.98,9.11-2.95,1.79-1.97,2.69-5.33,2.69-10.1v-5.25c-1.76,2.05-3.72,3.56-5.85,4.51-2.14.95-4.6,1.43-7.37,1.43-5.41,0-9.88-1.8-13.42-5.4-3.54-3.6-5.31-8.16-5.31-13.68s1.82-10.15,5.46-13.81,8.15-5.49,13.53-5.49c2.23,0,4.4.41,6.53,1.24s4.27,2.08,6.44,3.75v-3.12c0-.61.2-1.05.58-1.34.39-.29,1-.43,1.84-.43h6.55c1.16,0,2.02.25,2.6.76.58.51.87,1.27.87,2.28,0,1.16-.36,1.97-1.08,2.43-.72.46-2.07.69-4.05.69h-.78v31.61ZM296.76,212.61c-3.79,0-6.88,1.17-9.28,3.51-2.4,2.34-3.6,5.38-3.6,9.11s1.2,6.69,3.6,9.04,5.49,3.53,9.28,3.53,6.84-1.18,9.26-3.53,3.62-5.37,3.62-9.04-1.21-6.69-3.62-9.06c-2.41-2.37-5.5-3.56-9.26-3.56Z"/><path d="M58.89,323.33h-16.28c-.85,0-1.48-.22-1.91-.65-.42-.44-.64-1.09-.64-1.96,0-.97.27-1.63.8-1.98.53-.35,1.8-.53,3.82-.53h1.2v-32.75h-1.2c-1.87,0-3.06-.19-3.6-.56-.53-.38-.8-1.06-.8-2.05,0-.85.22-1.5.65-1.94.44-.45,1.07-.67,1.89-.67h16.97c5.14,0,9.05,1,11.74,3,2.69,2,4.03,4.9,4.03,8.7,0,1.91-.41,3.59-1.24,5.01-.82,1.43-2.05,2.61-3.67,3.53,2.62.95,4.56,2.27,5.83,3.96,1.27,1.7,1.91,3.85,1.91,6.47,0,2.21-.55,4.22-1.64,6.03-1.09,1.82-2.63,3.31-4.62,4.47-1.19.68-2.51,1.17-3.96,1.47s-3.51.45-6.18.45h-3.12ZM51.59,298.83h7.6c3.44,0,5.99-.55,7.65-1.64,1.66-1.09,2.49-2.77,2.49-5.05,0-2.16-.75-3.81-2.25-4.96-1.5-1.15-3.66-1.73-6.47-1.73h-9.01v13.38ZM51.59,318.2h8.07c4.55,0,7.77-.58,9.63-1.73,1.87-1.15,2.8-3.06,2.8-5.72s-.89-4.6-2.67-5.74c-1.78-1.14-4.91-1.71-9.4-1.71h-8.43v14.9Z"/><path d="M94.95,309.92c0,3.05.64,5.28,1.93,6.69,1.28,1.41,3.32,2.11,6.11,2.11,2.64,0,4.9-.84,6.78-2.51,1.88-1.67,2.82-3.77,2.82-6.3v-15.03h-4.98c-.95,0-1.63-.2-2.05-.59-.42-.4-.64-1.02-.64-1.86,0-.92.23-1.59.69-2.02.46-.43,1.2-.65,2.22-.65h7.74c.92,0,1.57.2,1.94.6.38.4.56,1.38.56,2.93v24.93h1.67c1.19,0,2.04.19,2.56.58.52.39.78,1.03.78,1.93s-.25,1.53-.75,1.96c-.5.44-1.22.65-2.16.65h-5.52c-.65,0-1.16-.13-1.53-.4-.36-.27-.54-.63-.54-1.09v-2.47c-2.33,1.79-4.32,3.02-5.98,3.69s-3.41,1-5.25,1c-4,0-7-1.06-9-3.18s-3-5.33-3-9.62v-16.38h-.76c-1.65,0-2.77-.19-3.38-.58-.61-.38-.91-1.06-.91-2.02,0-.84.24-1.47.71-1.89.47-.42,1.21-.63,2.2-.63h5.49c.85,0,1.44.17,1.76.51.33.34.49,1.09.49,2.25v17.41Z"/><path d="M152.04,318.2h11.67c.94,0,1.64.2,2.09.6.45.4.67,1.04.67,1.91,0,.99-.21,1.68-.64,2.05-.42.38-1.21.56-2.34.56h-28.17c-.97,0-1.7-.22-2.18-.65-.48-.44-.73-1.09-.73-1.96s.25-1.48.76-1.89c.51-.41,1.27-.62,2.29-.62h11.08v-23.33h-7.11c-1,0-1.76-.22-2.28-.67-.52-.45-.79-1.09-.79-1.93s.24-1.47.73-1.89c.48-.42,1.21-.63,2.18-.63h10.65c.65,0,1.17.13,1.54.4.38.27.56.63.56,1.09v26.97ZM145.32,279.28c0-2.62.24-4.26.71-4.94.47-.68,1.48-1.02,3.04-1.02s2.5.29,2.98.85.73,1.92.73,4.05-.22,3.38-.67,3.87c-.45.5-1.46.75-3.03.75s-2.56-.23-3.04-.69-.71-1.42-.71-2.87Z"/><path d="M248.93,323.33c-.51,0-.87-.13-1.07-.38-.21-.25-.31-.75-.31-1.47v-2.98c-1.45,1.82-3.27,3.23-5.45,4.23s-4.54,1.51-7.09,1.51c-4.58,0-8.41-1.63-11.5-4.89s-4.63-7.31-4.63-12.16,1.65-9.19,4.94-12.52c3.29-3.33,7.4-5,12.32-5,2.5,0,4.74.44,6.72,1.33s3.69,2.19,5.12,3.91v-13.92h-1.93c-2.11,0-3.47-.19-4.09-.56-.62-.38-.93-1.06-.93-2.05,0-.87.25-1.53.75-1.96.5-.44,1.22-.65,2.16-.65h7.45c.73,0,1.25.12,1.58.36s.49.62.49,1.13v40.96h1.64c1.19,0,2.05.2,2.58.6.53.4.8,1.04.8,1.91,0,.82-.23,1.47-.69,1.93-.46.46-1.08.69-1.85.69h-7.01ZM225.13,307.01c0,3.34,1.08,6.08,3.23,8.21s4.89,3.2,8.21,3.2,6.09-1.11,8.25-3.33c2.16-2.22,3.23-5.03,3.23-8.45s-1.07-6.14-3.22-8.32c-2.14-2.18-4.9-3.27-8.27-3.27s-6.18,1.1-8.29,3.31c-2.11,2.21-3.16,5.09-3.16,8.65Z"/><path d="M270.38,308.14c.19,3.5,1.38,6.21,3.54,8.11,2.17,1.91,5.13,2.86,8.89,2.86,2.83,0,5.92-.76,9.27-2.27,3.34-1.51,5.37-2.27,6.07-2.27s1.33.23,1.82.69c.48.46.73,1.03.73,1.71s-.25,1.34-.76,1.92c-.51.58-1.32,1.15-2.44,1.7-2.42,1.18-4.92,2.08-7.5,2.71-2.58.62-5.14.94-7.69.94-5.52,0-9.95-1.59-13.26-4.78-3.32-3.19-4.98-7.41-4.98-12.67s1.76-9.69,5.27-13.01,8.09-4.98,13.74-4.98c5.11,0,9.35,1.55,12.72,4.65,3.37,3.1,5.05,6.86,5.05,11.27,0,1.36-.29,2.27-.85,2.73-.57.46-2.11.69-4.63.69h-24.97ZM270.56,303.37h23.66c-.36-2.88-1.57-5.2-3.62-6.96-2.05-1.76-4.56-2.63-7.54-2.63-3.22,0-5.94.85-8.14,2.54-2.2,1.7-3.66,4.05-4.36,7.05Z"/><path d="M323.76,318.2h12.07c.94,0,1.64.2,2.09.6.45.4.67,1.04.67,1.91,0,.99-.21,1.68-.64,2.05-.42.38-1.21.56-2.34.56h-23.77c-.95,0-1.66-.22-2.14-.65-.49-.44-.73-1.09-.73-1.96s.25-1.48.75-1.89c.5-.41,1.27-.62,2.31-.62h6.32v-23.33h-2.47c-2.35,0-3.82-.19-4.4-.56-.58-.37-.87-1.05-.87-2.04,0-.84.24-1.47.71-1.89.47-.42,1.19-.63,2.16-.63h8.29c.65,0,1.15.13,1.49.38.34.25.51.62.51,1.11v6.18c2.3-2.88,4.7-5.03,7.2-6.43,2.5-1.4,5.18-2.11,8.07-2.11,2.16,0,3.9.43,5.23,1.3,1.33.87,2,1.99,2,3.36,0,.89-.33,1.68-1,2.37s-1.4,1.04-2.2,1.04c-.56,0-1.5-.37-2.82-1.11-1.32-.74-2.5-1.11-3.54-1.11-1.89,0-3.88.67-5.98,2.02-2.1,1.35-4.42,3.48-6.96,6.39v15.07Z"/><path class="cls-7" d="M117.93,76.91c-2.26,4.86-2.68,10.1-1.55,14.95l-13.11,9.21c-2.94-2.68-6.34-4.97-10.14-6.74-20.07-9.32-43.9-.61-53.22,19.47s-.61,43.9,19.47,53.22c20.07,9.32,43.9.61,53.22-19.47,4.92-10.6,4.81-22.24.66-32.25l13.12-9.21c.89.57,1.82,1.09,2.8,1.55,11.59,5.38,25.34.35,30.72-11.24,5.38-11.59.35-25.34-11.24-30.72-11.59-5.38-25.34-.35-30.72,11.24ZM146.85,90.34c-2.04,4.38-7.24,6.29-11.62,4.25s-6.28-7.24-4.25-11.62,7.24-6.29,11.62-4.25c4.38,2.04,6.28,7.24,4.25,11.62Z"/><path class="cls-3" d="M117.93,76.91c-2.26,4.86-2.68,10.1-1.55,14.95l-13.11,9.21c-2.94-2.68-6.34-4.97-10.14-6.74-20.07-9.32-43.9-.61-53.22,19.47s-.61,43.9,19.47,53.22c20.07,9.32,43.9.61,53.22-19.47,4.92-10.6,4.81-22.24.66-32.25l13.12-9.21c.89.57,1.82,1.09,2.8,1.55,11.59,5.38,25.34.35,30.72-11.24,5.38-11.59.35-25.34-11.24-30.72-11.59-5.38-25.34-.35-30.72,11.24ZM146.85,90.34c-2.04,4.38-7.24,6.29-11.62,4.25s-6.28-7.24-4.25-11.62,7.24-6.29,11.62-4.25c4.38,2.04,6.28,7.24,4.25,11.62Z"/><path class="cls-5" d="M111.27,72.32c-2.26,4.86-2.68,10.1-1.55,14.95l-13.11,9.21c-2.94-2.68-6.34-4.97-10.14-6.74-20.07-9.32-43.9-.61-53.22,19.47-9.32,20.07-.61,43.9,19.47,53.22,20.07,9.32,43.9.61,53.22-19.47,4.92-10.6,4.81-22.24.66-32.25l13.12-9.21c.89.57,1.82,1.09,2.8,1.55,11.59,5.38,25.34.35,30.72-11.24,5.38-11.59.35-25.34-11.24-30.72s-25.34-.35-30.72,11.24ZM140.19,85.74c-2.04,4.38-7.24,6.29-11.62,4.25s-6.28-7.24-4.25-11.62,7.24-6.29,11.62-4.25,6.28,7.24,4.25,11.62Z"/><path class="cls-3" d="M111.27,72.32c-2.26,4.86-2.68,10.1-1.55,14.95l-13.11,9.21c-2.94-2.68-6.34-4.97-10.14-6.74-20.07-9.32-43.9-.61-53.22,19.47-9.32,20.07-.61,43.9,19.47,53.22,20.07,9.32,43.9.61,53.22-19.47,4.92-10.6,4.81-22.24.66-32.25l13.12-9.21c.89.57,1.82,1.09,2.8,1.55,11.59,5.38,25.34.35,30.72-11.24,5.38-11.59.35-25.34-11.24-30.72s-25.34-.35-30.72,11.24ZM140.19,85.74c-2.04,4.38-7.24,6.29-11.62,4.25s-6.28-7.24-4.25-11.62,7.24-6.29,11.62-4.25,6.28,7.24,4.25,11.62Z"/><path class="cls-7" d="M78.36,134.29c0,1.4-.33,2.92-1,4.55-.66,1.63-1.71,3.23-3.13,4.8-1.42,1.57-3.24,2.85-5.45,3.83-2.21.98-4.79,1.47-7.73,1.47-2.23,0-4.26-.22-6.09-.66-1.83-.44-3.49-1.13-4.98-2.06-1.49-.93-2.86-2.16-4.11-3.68-1.12-1.38-2.07-2.93-2.86-4.64-.79-1.71-1.38-3.54-1.77-5.48-.39-1.94-.59-4-.59-6.19,0-3.54.5-6.71,1.49-9.52.99-2.8,2.41-5.2,4.25-7.19,1.85-1.99,4.01-3.51,6.49-4.55,2.48-1.04,5.12-1.56,7.93-1.56,3.42,0,6.47.71,9.15,2.13,2.67,1.42,4.72,3.18,6.15,5.27,1.42,2.09,2.13,4.07,2.13,5.93,0,1.02-.35,1.92-1.04,2.7-.69.78-1.53,1.17-2.51,1.17-1.1,0-1.92-.27-2.47-.81-.55-.54-1.16-1.47-1.83-2.79-1.12-2.18-2.43-3.81-3.94-4.89-1.51-1.08-3.37-1.62-5.58-1.62-3.52,0-6.32,1.39-8.41,4.17-2.09,2.78-3.13,6.74-3.13,11.86,0,3.42.46,6.27,1.38,8.54.92,2.27,2.23,3.97,3.92,5.09,1.69,1.12,3.67,1.68,5.94,1.68,2.46,0,4.54-.64,6.25-1.91,1.7-1.27,2.99-3.14,3.85-5.6.36-1.16.82-2.11,1.36-2.84.54-.73,1.4-1.1,2.6-1.1,1.02,0,1.89.37,2.62,1.11.73.74,1.1,1.66,1.1,2.76Z"/><path class="cls-7" d="M85.51,143.96v-35.55c0-1.64.35-2.88,1.05-3.72s1.65-1.26,2.84-1.26,2.15.42,2.88,1.25c.73.83,1.1,2.08,1.1,3.74v35.55c0,1.66-.37,2.91-1.11,3.74-.74.83-1.7,1.25-2.87,1.25s-2.09-.43-2.81-1.29c-.72-.86-1.08-2.09-1.08-3.69Z"/></svg>