<?xml version="1.0" encoding="UTF-8"?><svg id="Layer_1" xmlns="http://www.w3.org/2000/svg" viewBox="0 0 379.74 286.15"><defs><style>.cls-1{fill:#6f37a3;}.cls-2{fill:none;stroke:#161521;stroke-linejoin:round;stroke-width:4.12px;}.cls-3{fill:#38a0a0;}.cls-4{fill:#ffd364;}.cls-5{fill:#ce92fc;}</style></defs><path class="cls-3" d="M268.78,53.65c11.71-3.25,18.57-15.38,15.33-27.09-3.25-11.71-15.38-18.57-27.09-15.33-11.71,3.25-18.57,15.38-15.33,27.09,1.36,4.91,4.29,8.97,8.1,11.79l-4.8,18.57-37.64,10.44-13.68-13.44c1.81-4.37,2.23-9.36.87-14.27-3.25-11.71-15.38-18.57-27.09-15.33-11.71,3.25-18.57,15.38-15.33,27.09,3.25,11.71,15.38,18.57,27.09,15.33.99-.28,1.95-.62,2.87-1.02l13.68,13.45-12.23,47.28,35.3,34.69-5.64,21.81c-.99.13-1.99.33-2.98.61-11.71,3.25-18.57,15.38-15.33,27.09,3.25,11.71,15.38,18.57,27.09,15.33,11.71-3.25,18.57-15.38,15.33-27.09-1.36-4.91-4.29-8.97-8.1-11.79l5.8-22.44,46.44-12.88,14.62-56.53-35-34.4,4.74-18.34c.99-.13,1.99-.33,2.98-.61ZM260.67,24.42c4.43-1.23,9.02,1.37,10.24,5.8,1.23,4.43-1.37,9.02-5.8,10.24-4.43,1.23-9.02-1.37-10.24-5.8-1.23-4.43,1.37-9.02,5.8-10.24ZM165.3,59.5c-1.23-4.43,1.37-9.02,5.8-10.24,4.43-1.23,9.02,1.37,10.24,5.8,1.23,4.43-1.37,9.02-5.8,10.24-4.43,1.23-9.02-1.37-10.24-5.8ZM218.3,224.52c-4.43,1.23-9.02-1.37-10.24-5.8-1.23-4.43,1.37-9.02,5.8-10.24,4.43-1.23,9.02,1.37,10.24,5.8,1.23,4.43-1.37,9.02-5.8,10.24ZM267.92,150.24l-38.01,10.54-28.13-27.65,9.88-38.19,38.01-10.54,28.13,27.65-9.88,38.19Z"/><rect class="cls-3" x="221.91" y="98.81" width="24.56" height="7.17" transform="translate(-18.85 66.3) rotate(-15.5)"/><rect class="cls-3" x="222.91" y="127" width="7.17" height="24.56" transform="translate(-31.6 203.2) rotate(-45.5)"/><rect class="cls-3" x="247.51" y="126.46" width="24.56" height="7.17" transform="translate(68.83 349) rotate(-75.5)"/><path class="cls-2" d="M268.29,53.6c11.71-3.25,18.57-15.38,15.33-27.09-3.25-11.71-15.38-18.57-27.09-15.33-11.71,3.25-18.57,15.38-15.33,27.09,1.36,4.91,4.29,8.97,8.1,11.79l-4.8,18.57-37.64,10.44-13.68-13.44c1.81-4.37,2.23-9.36.87-14.27-3.25-11.71-15.38-18.57-27.09-15.33-11.71,3.25-18.57,15.38-15.33,27.09,3.25,11.71,15.38,18.57,27.09,15.33.99-.28,1.95-.62,2.87-1.02l13.68,13.45-12.23,47.28,35.3,34.69-5.64,21.81c-.99.13-1.99.33-2.98.61-11.71,3.25-18.57,15.38-15.33,27.09,3.25,11.71,15.38,18.57,27.09,15.33,11.71-3.25,18.57-15.38,15.33-27.09-1.36-4.91-4.29-8.97-8.1-11.79l5.8-22.44,46.44-12.88,14.62-56.53-35-34.4,4.74-18.34c.99-.13,1.99-.33,2.98-.61ZM260.19,24.38c4.43-1.23,9.02,1.37,10.24,5.8,1.23,4.43-1.37,9.02-5.8,10.24-4.43,1.23-9.02-1.37-10.24-5.8-1.23-4.43,1.37-9.02,5.8-10.24ZM164.82,59.46c-1.23-4.43,1.37-9.02,5.8-10.24,4.43-1.23,9.02,1.37,10.24,5.8,1.23,4.43-1.37,9.02-5.8,10.24-4.43,1.23-9.02-1.37-10.24-5.8ZM217.82,224.48c-4.43,1.23-9.02-1.37-10.24-5.8-1.23-4.43,1.37-9.02,5.8-10.24,4.43-1.23,9.02,1.37,10.24,5.8,1.23,4.43-1.37,9.02-5.8,10.24ZM267.44,150.2l-38.01,10.54-28.13-27.65,9.88-38.19,38.01-10.54,28.13,27.65-9.88,38.19Z"/><rect class="cls-2" x="221.43" y="98.77" width="24.56" height="7.17" transform="translate(-18.85 66.17) rotate(-15.5)"/><rect class="cls-2" x="222.43" y="126.96" width="7.17" height="24.56" transform="translate(-31.72 202.84) rotate(-45.5)"/><rect class="cls-2" x="247.03" y="126.42" width="24.56" height="7.17" transform="translate(68.51 348.5) rotate(-75.5)"/><path class="cls-4" d="M261.69,49.33c11.71-3.25,18.57-15.38,15.33-27.09-3.25-11.71-15.38-18.57-27.09-15.33-11.71,3.25-18.57,15.38-15.33,27.09,1.36,4.91,4.29,8.97,8.1,11.79l-4.8,18.57-37.64,10.44-13.68-13.44c1.81-4.37,2.23-9.36.87-14.27-3.25-11.71-15.38-18.57-27.09-15.33-11.71,3.25-18.57,15.38-15.33,27.09,3.25,11.71,15.38,18.57,27.09,15.33.99-.28,1.95-.62,2.87-1.02l13.68,13.45-12.23,47.28,35.3,34.69-5.64,21.81c-.99.13-1.99.33-2.98.61-11.71,3.25-18.57,15.38-15.33,27.09,3.25,11.71,15.38,18.57,27.09,15.33,11.71-3.25,18.57-15.38,15.33-27.09-1.36-4.91-4.29-8.97-8.1-11.79l5.8-22.44,46.44-12.88,14.62-56.53-35-34.4,4.74-18.34c.99-.13,1.99-.33,2.98-.61ZM253.58,20.1c4.43-1.23,9.02,1.37,10.24,5.8,1.23,4.43-1.37,9.02-5.8,10.24s-9.02-1.37-10.24-5.8c-1.23-4.43,1.37-9.02,5.8-10.24ZM158.21,55.19c-1.23-4.43,1.37-9.02,5.8-10.24,4.43-1.23,9.02,1.37,10.24,5.8,1.23,4.43-1.37,9.02-5.8,10.24-4.43,1.23-9.02-1.37-10.24-5.8ZM211.22,220.21c-4.43,1.23-9.02-1.37-10.24-5.8-1.23-4.43,1.37-9.02,5.8-10.24,4.43-1.23,9.02,1.37,10.24,5.8,1.23,4.43-1.37,9.02-5.8,10.24ZM260.84,145.93l-38.01,10.54-28.13-27.65,9.88-38.19,38.01-10.54,28.13,27.65-9.88,38.19Z"/><rect class="cls-4" x="214.82" y="94.5" width="24.56" height="7.17" transform="translate(-17.95 64.25) rotate(-15.5)"/><rect class="cls-4" x="215.82" y="122.69" width="7.17" height="24.56" transform="translate(-30.65 196.85) rotate(-45.5)"/><rect class="cls-4" x="240.42" y="122.15" width="24.56" height="7.17" transform="translate(67.7 338.9) rotate(-75.5)"/><path class="cls-2" d="M261.21,49.29c11.71-3.25,18.57-15.38,15.33-27.09-3.25-11.71-15.38-18.57-27.09-15.33-11.71,3.25-18.57,15.38-15.33,27.09,1.36,4.91,4.29,8.97,8.1,11.79l-4.8,18.57-37.64,10.44-13.68-13.44c1.81-4.37,2.23-9.36.87-14.27-3.25-11.71-15.38-18.57-27.09-15.33-11.71,3.25-18.57,15.38-15.33,27.09s15.38,18.57,27.09,15.33c.99-.28,1.95-.62,2.87-1.02l13.68,13.45-12.23,47.28,35.3,34.69-5.64,21.81c-.99.13-1.99.33-2.98.61-11.71,3.25-18.57,15.38-15.33,27.09,3.25,11.71,15.38,18.57,27.09,15.33,11.71-3.25,18.57-15.38,15.33-27.09-1.36-4.91-4.29-8.97-8.1-11.79l5.8-22.44,46.44-12.88,14.62-56.53-35-34.4,4.74-18.34c.99-.13,1.99-.33,2.98-.61ZM253.1,20.06c4.43-1.23,9.02,1.37,10.24,5.8,1.23,4.43-1.37,9.02-5.8,10.24-4.43,1.23-9.02-1.37-10.24-5.8s1.37-9.02,5.8-10.24ZM157.73,55.15c-1.23-4.43,1.37-9.02,5.8-10.24,4.43-1.23,9.02,1.37,10.24,5.8s-1.37,9.02-5.8,10.24c-4.43,1.23-9.02-1.37-10.24-5.8ZM210.73,220.17c-4.43,1.23-9.02-1.37-10.24-5.8-1.23-4.43,1.37-9.02,5.8-10.24,4.43-1.23,9.02,1.37,10.24,5.8,1.23,4.43-1.37,9.02-5.8,10.24ZM260.35,145.89l-38.01,10.54-28.13-27.65,9.88-38.19,38.01-10.54,28.13,27.65-9.88,38.19Z"/><rect class="cls-2" x="214.34" y="94.46" width="24.56" height="7.17" transform="translate(-17.96 64.12) rotate(-15.5)"/><rect class="cls-2" x="215.34" y="122.65" width="7.17" height="24.56" transform="translate(-30.76 196.5) rotate(-45.5)"/><rect class="cls-2" x="239.94" y="122.11" width="24.56" height="7.17" transform="translate(67.38 338.41) rotate(-75.5)"/><path class="cls-1" d="M103.5,192.33l-14.84,7.61h.31s18.17,35.03,18.17,35.03l-21.2,33.18,13.86,8.78,21.47-33.61,22.5,1.01c.34.94.73,1.88,1.21,2.79,5.6,10.79,18.88,15,29.67,9.4,10.79-5.6,15-18.88,9.4-29.67-5.6-10.79-18.88-15-29.67-9.4-4.53,2.35-7.89,6.05-9.86,10.36l-23.15-1.04-17.87-34.43ZM171.9,233.15c2.12,4.08.53,9.1-3.55,11.22-4.08,2.12-9.1.53-11.22-3.55-2.12-4.08-.53-9.1,3.55-11.22,4.08-2.12,9.1-.53,11.22,3.55Z"/><path class="cls-2" d="M103.81,192.29l-14.84,7.61h.31s18.17,35.03,18.17,35.03l-21.2,33.18,13.86,8.78,21.47-33.61,22.5,1.01c.34.94.73,1.88,1.21,2.79,5.6,10.79,18.88,15,29.67,9.4,10.79-5.6,15-18.88,9.4-29.67-5.6-10.79-18.88-15-29.67-9.4-4.53,2.35-7.89,6.05-9.86,10.36l-23.15-1.04-17.87-34.43ZM172.21,233.11c2.12,4.08.53,9.1-3.55,11.22-4.08,2.12-9.1.53-11.22-3.55-2.12-4.08-.53-9.1,3.55-11.22,4.08-2.12,9.1-.53,11.22,3.55Z"/><path class="cls-5" d="M106.53,185.49l-14.84,7.61h.31s18.17,35.03,18.17,35.03l-21.2,33.18,13.86,8.78,21.47-33.61,22.5,1.01c.34.94.73,1.88,1.21,2.79,5.6,10.79,18.88,15,29.67,9.4,10.79-5.6,15-18.88,9.4-29.67-5.6-10.79-18.88-15-29.67-9.4-4.53,2.35-7.89,6.05-9.86,10.36l-23.15-1.04-17.87-34.43ZM174.94,226.31c2.12,4.08.53,9.1-3.55,11.22-4.08,2.12-9.1.53-11.22-3.55-2.12-4.08-.53-9.1,3.55-11.22,4.08-2.12,9.1-.53,11.22,3.55Z"/><path class="cls-2" d="M106.84,185.45l-14.84,7.61h.31s18.17,35.03,18.17,35.03l-21.2,33.18,13.86,8.78,21.47-33.61,22.5,1.01c.34.94.73,1.88,1.21,2.79,5.6,10.79,18.88,15,29.67,9.4,10.79-5.6,15-18.88,9.4-29.67-5.6-10.79-18.88-15-29.67-9.4-4.53,2.35-7.89,6.05-9.86,10.36l-23.15-1.04-17.87-34.43ZM175.25,226.27c2.12,4.08.53,9.1-3.55,11.22-4.08,2.12-9.1.53-11.22-3.55-2.12-4.08-.53-9.1,3.55-11.22,4.08-2.12,9.1-.53,11.22,3.55Z"/></svg>