<?xml version="1.0" encoding="UTF-8"?><svg id="Layer_1" xmlns="http://www.w3.org/2000/svg" viewBox="0 0 379.74 286.15"><defs><style>.cls-1{fill:#6f37a3;}.cls-2{fill:none;stroke:#161521;stroke-linejoin:round;stroke-width:4.12px;}.cls-3{fill:#38a0a0;}.cls-4{fill:#ffd364;}.cls-5{fill:#ce92fc;}</style></defs><path class="cls-3" d="M279.87,63.92c11.71-3.25,18.57-15.38,15.33-27.09-3.25-11.71-15.38-18.57-27.09-15.33-11.71,3.25-18.57,15.38-15.33,27.09,1.36,4.91,4.29,8.97,8.1,11.79l-4.8,18.57-37.64,10.44-13.68-13.44c1.81-4.37,2.23-9.36.87-14.27-3.25-11.71-15.38-18.57-27.09-15.33-11.71,3.25-18.57,15.38-15.33,27.09,3.25,11.71,15.38,18.57,27.09,15.33.99-.28,1.95-.62,2.87-1.02l13.68,13.45-12.23,47.28,35.3,34.69-5.64,21.81c-.99.13-1.99.33-2.98.61-11.71,3.25-18.57,15.38-15.33,27.09,3.25,11.71,15.38,18.57,27.09,15.33,11.71-3.25,18.57-15.38,15.33-27.09-1.36-4.91-4.29-8.97-8.1-11.79l5.8-22.44,46.44-12.88,14.62-56.53-35-34.4,4.74-18.34c.99-.13,1.99-.33,2.98-.61ZM271.77,34.69c4.43-1.23,9.02,1.37,10.24,5.8,1.23,4.43-1.37,9.02-5.8,10.24-4.43,1.23-9.02-1.37-10.24-5.8-1.23-4.43,1.37-9.02,5.8-10.24ZM176.4,69.78c-1.23-4.43,1.37-9.02,5.8-10.24,4.43-1.23,9.02,1.37,10.24,5.8,1.23,4.43-1.37,9.02-5.8,10.24-4.43,1.23-9.02-1.37-10.24-5.8ZM229.4,234.8c-4.43,1.23-9.02-1.37-10.24-5.8-1.23-4.43,1.37-9.02,5.8-10.24,4.43-1.23,9.02,1.37,10.24,5.8,1.23,4.43-1.37,9.02-5.8,10.24ZM279.02,160.52l-38.01,10.54-28.13-27.65,9.88-38.19,38.01-10.54,28.13,27.65-9.88,38.19Z"/><rect class="cls-3" x="233.01" y="109.09" width="24.56" height="7.17" transform="translate(-21.19 69.64) rotate(-15.5)"/><rect class="cls-3" x="234.01" y="137.28" width="7.17" height="24.56" transform="translate(-35.61 214.19) rotate(-45.5)"/><rect class="cls-3" x="258.61" y="136.74" width="24.56" height="7.17" transform="translate(67.21 367.45) rotate(-75.5)"/><path class="cls-2" d="M279.39,63.88c11.71-3.25,18.57-15.38,15.33-27.09-3.25-11.71-15.38-18.57-27.09-15.33-11.71,3.25-18.57,15.38-15.33,27.09,1.36,4.91,4.29,8.97,8.1,11.79l-4.8,18.57-37.64,10.44-13.68-13.44c1.81-4.37,2.23-9.36.87-14.27-3.25-11.71-15.38-18.57-27.09-15.33-11.71,3.25-18.57,15.38-15.33,27.09,3.25,11.71,15.38,18.57,27.09,15.33.99-.28,1.95-.62,2.87-1.02l13.68,13.45-12.23,47.28,35.3,34.69-5.64,21.81c-.99.13-1.99.33-2.98.61-11.71,3.25-18.57,15.38-15.33,27.09,3.25,11.71,15.38,18.57,27.09,15.33,11.71-3.25,18.57-15.38,15.33-27.09-1.36-4.91-4.29-8.97-8.1-11.79l5.8-22.44,46.44-12.88,14.62-56.53-35-34.4,4.74-18.34c.99-.13,1.99-.33,2.98-.61ZM271.29,34.65c4.43-1.23,9.02,1.37,10.24,5.8,1.23,4.43-1.37,9.02-5.8,10.24-4.43,1.23-9.02-1.37-10.24-5.8-1.23-4.43,1.37-9.02,5.8-10.24ZM175.92,69.73c-1.23-4.43,1.37-9.02,5.8-10.24,4.43-1.23,9.02,1.37,10.24,5.8,1.23,4.43-1.37,9.02-5.8,10.24-4.43,1.23-9.02-1.37-10.24-5.8ZM228.92,234.76c-4.43,1.23-9.02-1.37-10.24-5.8s1.37-9.02,5.8-10.24c4.43-1.23,9.02,1.37,10.24,5.8,1.23,4.43-1.37,9.02-5.8,10.24ZM278.54,160.47l-38.01,10.54-28.13-27.65,9.88-38.19,38.01-10.54,28.13,27.65-9.88,38.19Z"/><rect class="cls-2" x="232.52" y="109.04" width="24.56" height="7.17" transform="translate(-21.19 69.51) rotate(-15.5)"/><rect class="cls-2" x="233.53" y="137.23" width="7.17" height="24.56" transform="translate(-35.73 213.83) rotate(-45.5)"/><rect class="cls-2" x="258.13" y="136.7" width="24.56" height="7.17" transform="translate(66.89 366.95) rotate(-75.5)"/><path class="cls-4" d="M272.79,59.61c11.71-3.25,18.57-15.38,15.33-27.09-3.25-11.71-15.38-18.57-27.09-15.33-11.71,3.25-18.57,15.38-15.33,27.09,1.36,4.91,4.29,8.97,8.1,11.79l-4.8,18.57-37.64,10.44-13.68-13.44c1.81-4.37,2.23-9.36.87-14.27-3.25-11.71-15.38-18.57-27.09-15.33-11.71,3.25-18.57,15.38-15.33,27.09,3.25,11.71,15.38,18.57,27.09,15.33.99-.28,1.95-.62,2.87-1.02l13.68,13.45-12.23,47.28,35.3,34.69-5.64,21.81c-.99.13-1.99.33-2.98.61-11.71,3.25-18.57,15.38-15.33,27.09,3.25,11.71,15.38,18.57,27.09,15.33,11.71-3.25,18.57-15.38,15.33-27.09-1.36-4.91-4.29-8.97-8.1-11.79l5.8-22.44,46.44-12.88,14.62-56.53-35-34.4,4.74-18.34c.99-.13,1.99-.33,2.98-.61ZM264.68,30.38c4.43-1.23,9.02,1.37,10.24,5.8,1.23,4.43-1.37,9.02-5.8,10.24-4.43,1.23-9.02-1.37-10.24-5.8-1.23-4.43,1.37-9.02,5.8-10.24ZM169.31,65.46c-1.23-4.43,1.37-9.02,5.8-10.24s9.02,1.37,10.24,5.8-1.37,9.02-5.8,10.24c-4.43,1.23-9.02-1.37-10.24-5.8ZM222.32,230.48c-4.43,1.23-9.02-1.37-10.24-5.8-1.23-4.43,1.37-9.02,5.8-10.24,4.43-1.23,9.02,1.37,10.24,5.8,1.23,4.43-1.37,9.02-5.8,10.24ZM271.93,156.2l-38.01,10.54-28.13-27.65,9.88-38.19,38.01-10.54,28.13,27.65-9.88,38.19Z"/><rect class="cls-4" x="225.92" y="104.77" width="24.56" height="7.17" transform="translate(-20.29 67.59) rotate(-15.5)"/><rect class="cls-4" x="226.92" y="132.96" width="7.17" height="24.56" transform="translate(-34.66 207.84) rotate(-45.5)"/><rect class="cls-4" x="251.52" y="132.43" width="24.56" height="7.17" transform="translate(66.07 357.35) rotate(-75.5)"/><path class="cls-2" d="M272.3,59.57c11.71-3.25,18.57-15.38,15.33-27.09-3.25-11.71-15.38-18.57-27.09-15.33-11.71,3.25-18.57,15.38-15.33,27.09,1.36,4.91,4.29,8.97,8.1,11.79l-4.8,18.57-37.64,10.44-13.68-13.44c1.81-4.37,2.23-9.36.87-14.27-3.25-11.71-15.38-18.57-27.09-15.33-11.71,3.25-18.57,15.38-15.33,27.09,3.25,11.71,15.38,18.57,27.09,15.33.99-.28,1.95-.62,2.87-1.02l13.68,13.45-12.23,47.28,35.3,34.69-5.64,21.81c-.99.13-1.99.33-2.98.61-11.71,3.25-18.57,15.38-15.33,27.09,3.25,11.71,15.38,18.57,27.09,15.33,11.71-3.25,18.57-15.38,15.33-27.09-1.36-4.91-4.29-8.97-8.1-11.79l5.8-22.44,46.44-12.88,14.62-56.53-35-34.4,4.74-18.34c.99-.13,1.99-.33,2.98-.61ZM264.2,30.34c4.43-1.23,9.02,1.37,10.24,5.8,1.23,4.43-1.37,9.02-5.8,10.24-4.43,1.23-9.02-1.37-10.24-5.8s1.37-9.02,5.8-10.24ZM168.83,65.42c-1.23-4.43,1.37-9.02,5.8-10.24,4.43-1.23,9.02,1.37,10.24,5.8,1.23,4.43-1.37,9.02-5.8,10.24-4.43,1.23-9.02-1.37-10.24-5.8ZM221.83,230.44c-4.43,1.23-9.02-1.37-10.24-5.8-1.23-4.43,1.37-9.02,5.8-10.24,4.43-1.23,9.02,1.37,10.24,5.8,1.23,4.43-1.37,9.02-5.8,10.24ZM271.45,156.16l-38.01,10.54-28.13-27.65,9.88-38.19,38.01-10.54,28.13,27.65-9.88,38.19Z"/><rect class="cls-2" x="225.44" y="104.73" width="24.56" height="7.17" transform="translate(-20.3 67.46) rotate(-15.5)"/><rect class="cls-2" x="226.44" y="132.92" width="7.17" height="24.56" transform="translate(-34.77 207.49) rotate(-45.5)"/><rect class="cls-2" x="251.04" y="132.38" width="24.56" height="7.17" transform="translate(65.75 356.85) rotate(-75.5)"/><path class="cls-1" d="M97.77,174.56l-14.84,7.61h.31s18.17,35.03,18.17,35.03l-21.2,33.18,13.86,8.78,21.47-33.61,22.5,1.01c.34.94.73,1.88,1.21,2.79,5.6,10.79,18.88,15,29.67,9.4,10.79-5.6,15-18.88,9.4-29.67-5.6-10.79-18.88-15-29.67-9.4-4.53,2.35-7.89,6.05-9.86,10.36l-23.15-1.04-17.87-34.43ZM166.18,215.38c2.12,4.08.53,9.1-3.55,11.22-4.08,2.12-9.1.53-11.22-3.55-2.12-4.08-.53-9.1,3.55-11.22,4.08-2.12,9.1-.53,11.22,3.55Z"/><path class="cls-2" d="M98.08,174.53l-14.84,7.61h.31s18.17,35.03,18.17,35.03l-21.2,33.18,13.86,8.78,21.47-33.61,22.5,1.01c.34.94.73,1.88,1.21,2.79,5.6,10.79,18.88,15,29.67,9.4,10.79-5.6,15-18.88,9.4-29.67-5.6-10.79-18.88-15-29.67-9.4-4.53,2.35-7.89,6.05-9.86,10.36l-23.15-1.04-17.87-34.43ZM166.48,215.35c2.12,4.08.53,9.1-3.55,11.22-4.08,2.12-9.1.53-11.22-3.55-2.12-4.08-.53-9.1,3.55-11.22,4.08-2.12,9.1-.53,11.22,3.55Z"/><path class="cls-5" d="M100.8,167.72l-14.84,7.61h.31s18.17,35.03,18.17,35.03l-21.2,33.18,13.86,8.78,21.47-33.61,22.5,1.01c.34.94.73,1.88,1.21,2.79,5.6,10.79,18.88,15,29.67,9.4,10.79-5.6,15-18.88,9.4-29.67-5.6-10.79-18.88-15-29.67-9.4-4.53,2.35-7.89,6.05-9.86,10.36l-23.15-1.04-17.87-34.43ZM169.21,208.54c2.12,4.08.53,9.1-3.55,11.22-4.08,2.12-9.1.53-11.22-3.55-2.12-4.08-.53-9.1,3.55-11.22,4.08-2.12,9.1-.53,11.22,3.55Z"/><path class="cls-2" d="M101.11,167.68l-14.84,7.61h.31s18.17,35.03,18.17,35.03l-21.2,33.18,13.86,8.78,21.47-33.61,22.5,1.01c.34.94.73,1.88,1.21,2.79,5.6,10.79,18.88,15,29.67,9.4,10.79-5.6,15-18.88,9.4-29.67-5.6-10.79-18.88-15-29.67-9.4-4.53,2.35-7.89,6.05-9.86,10.36l-23.15-1.04-17.87-34.43ZM169.52,208.5c2.12,4.08.53,9.1-3.55,11.22-4.08,2.12-9.1.53-11.22-3.55-2.12-4.08-.53-9.1,3.55-11.22,4.08-2.12,9.1-.53,11.22,3.55Z"/></svg>