<?xml version="1.0" encoding="UTF-8"?><svg id="Layer_1" xmlns="http://www.w3.org/2000/svg" viewBox="0 0 354.3 287.93"><defs><style>.cls-1{stroke-dasharray:3.93 1.96;}.cls-1,.cls-2,.cls-3,.cls-4,.cls-5,.cls-6,.cls-7{fill:none;stroke:#161521;stroke-linejoin:round;}.cls-1,.cls-3,.cls-4,.cls-5,.cls-6,.cls-7{stroke-width:2.29px;}.cls-8{fill:#ce92fc;stroke:#000;stroke-miterlimit:10;stroke-width:7.81px;}.cls-2{stroke-width:4.12px;}.cls-9{fill:#f4f4f4;}.cls-3{stroke-dasharray:4.1 2.05;}.cls-10{fill:#38a0a0;}.cls-11{fill:#ffd364;}.cls-4{stroke-dasharray:2.64 1.32;}.cls-5{stroke-dasharray:4.24 2.12;}.cls-12{fill:#5e5e5e;}.cls-6{stroke-dasharray:2.64 1.32;}</style></defs><path class="cls-10" d="M269.27,64.81c11.71-3.25,18.57-15.38,15.33-27.09-3.25-11.71-15.38-18.57-27.09-15.33-11.71,3.25-18.57,15.38-15.33,27.09,1.36,4.91,4.29,8.97,8.1,11.79l-4.8,18.57-37.64,10.44-13.68-13.44c1.81-4.37,2.23-9.36.87-14.27-3.25-11.71-15.38-18.57-27.09-15.33-11.71,3.25-18.57,15.38-15.33,27.09,3.25,11.71,15.38,18.57,27.09,15.33.99-.28,1.95-.62,2.87-1.02l13.68,13.45-12.23,47.28,35.3,34.69-5.64,21.81c-.99.13-1.99.33-2.98.61-11.71,3.25-18.57,15.38-15.33,27.09,3.25,11.71,15.38,18.57,27.09,15.33,11.71-3.25,18.57-15.38,15.33-27.09-1.36-4.91-4.29-8.97-8.1-11.79l5.8-22.44,46.44-12.88,14.62-56.53-35-34.4,4.74-18.34c.99-.13,1.99-.33,2.98-.61ZM261.16,35.59c4.43-1.23,9.02,1.37,10.24,5.8,1.23,4.43-1.37,9.02-5.8,10.24-4.43,1.23-9.02-1.37-10.24-5.8-1.23-4.43,1.37-9.02,5.8-10.24ZM165.79,70.67c-1.23-4.43,1.37-9.02,5.8-10.24,4.43-1.23,9.02,1.37,10.24,5.8,1.23,4.43-1.37,9.02-5.8,10.24-4.43,1.23-9.02-1.37-10.24-5.8ZM218.79,235.69c-4.43,1.23-9.02-1.37-10.24-5.8-1.23-4.43,1.37-9.02,5.8-10.24s9.02,1.37,10.24,5.8c1.23,4.43-1.37,9.02-5.8,10.24ZM268.41,161.41l-38.01,10.54-28.13-27.65,9.88-38.19,38.01-10.54,28.13,27.65-9.88,38.19Z"/><rect class="cls-10" x="222.4" y="109.98" width="24.56" height="7.17" transform="translate(-21.81 66.84) rotate(-15.5)"/><rect class="cls-10" x="223.4" y="138.17" width="7.17" height="24.56" transform="translate(-39.42 206.89) rotate(-45.5)"/><rect class="cls-10" x="248" y="137.63" width="24.56" height="7.17" transform="translate(58.39 357.85) rotate(-75.5)"/><path class="cls-2" d="M268.78,64.77c11.71-3.25,18.57-15.38,15.33-27.09-3.25-11.71-15.38-18.57-27.09-15.33-11.71,3.25-18.57,15.38-15.33,27.09,1.36,4.91,4.29,8.97,8.1,11.79l-4.8,18.57-37.64,10.44-13.68-13.44c1.81-4.37,2.23-9.36.87-14.27-3.25-11.71-15.38-18.57-27.09-15.33-11.71,3.25-18.57,15.38-15.33,27.09,3.25,11.71,15.38,18.57,27.09,15.33.99-.28,1.95-.62,2.87-1.02l13.68,13.45-12.23,47.28,35.3,34.69-5.64,21.81c-.99.13-1.99.33-2.98.61-11.71,3.25-18.57,15.38-15.33,27.09,3.25,11.71,15.38,18.57,27.09,15.33,11.71-3.25,18.57-15.38,15.33-27.09-1.36-4.91-4.29-8.97-8.1-11.79l5.8-22.44,46.44-12.88,14.62-56.53-35-34.4,4.74-18.34c.99-.13,1.99-.33,2.98-.61ZM260.68,35.54c4.43-1.23,9.02,1.37,10.24,5.8,1.23,4.43-1.37,9.02-5.8,10.24-4.43,1.23-9.02-1.37-10.24-5.8-1.23-4.43,1.37-9.02,5.8-10.24ZM165.31,70.63c-1.23-4.43,1.37-9.02,5.8-10.24,4.43-1.23,9.02,1.37,10.24,5.8,1.23,4.43-1.37,9.02-5.8,10.24-4.43,1.23-9.02-1.37-10.24-5.8ZM218.31,235.65c-4.43,1.23-9.02-1.37-10.24-5.8s1.37-9.02,5.8-10.24c4.43-1.23,9.02,1.37,10.24,5.8,1.23,4.43-1.37,9.02-5.8,10.24ZM267.93,161.37l-38.01,10.54-28.13-27.65,9.88-38.19,38.01-10.54,28.13,27.65-9.88,38.19Z"/><rect class="cls-2" x="221.92" y="109.94" width="24.56" height="7.17" transform="translate(-21.82 66.71) rotate(-15.5)"/><rect class="cls-2" x="222.92" y="138.13" width="7.17" height="24.56" transform="translate(-39.54 206.53) rotate(-45.5)"/><rect class="cls-2" x="247.52" y="137.59" width="24.56" height="7.17" transform="translate(58.07 357.35) rotate(-75.5)"/><path class="cls-11" d="M262.18,60.5c11.71-3.25,18.57-15.38,15.33-27.09-3.25-11.71-15.38-18.57-27.09-15.33-11.71,3.25-18.57,15.38-15.33,27.09,1.36,4.91,4.29,8.97,8.1,11.79l-4.8,18.57-37.64,10.44-13.68-13.44c1.81-4.37,2.23-9.36.87-14.27-3.25-11.71-15.38-18.57-27.09-15.33s-18.57,15.38-15.33,27.09c3.25,11.71,15.38,18.57,27.09,15.33.99-.28,1.95-.62,2.87-1.02l13.68,13.45-12.23,47.28,35.3,34.69-5.64,21.81c-.99.13-1.99.33-2.98.61-11.71,3.25-18.57,15.38-15.33,27.09,3.25,11.71,15.38,18.57,27.09,15.33,11.71-3.25,18.57-15.38,15.33-27.09-1.36-4.91-4.29-8.97-8.1-11.79l5.8-22.44,46.44-12.88,14.62-56.53-35-34.4,4.74-18.34c.99-.13,1.99-.33,2.98-.61ZM254.07,31.27c4.43-1.23,9.02,1.37,10.24,5.8,1.23,4.43-1.37,9.02-5.8,10.24-4.43,1.23-9.02-1.37-10.24-5.8-1.23-4.43,1.37-9.02,5.8-10.24ZM158.71,66.36c-1.23-4.43,1.37-9.02,5.8-10.24,4.43-1.23,9.02,1.37,10.24,5.8s-1.37,9.02-5.8,10.24c-4.43,1.23-9.02-1.37-10.24-5.8ZM211.71,231.38c-4.43,1.23-9.02-1.37-10.24-5.8-1.23-4.43,1.37-9.02,5.8-10.24,4.43-1.23,9.02,1.37,10.24,5.8,1.23,4.43-1.37,9.02-5.8,10.24ZM261.33,157.1l-38.01,10.54-28.13-27.65,9.88-38.19,38.01-10.54,28.13,27.65-9.88,38.19Z"/><rect class="cls-11" x="215.31" y="105.67" width="24.56" height="7.17" transform="translate(-20.92 64.79) rotate(-15.5)"/><rect class="cls-11" x="216.31" y="133.86" width="7.17" height="24.56" transform="translate(-38.46 200.54) rotate(-45.5)"/><rect class="cls-11" x="240.91" y="133.32" width="24.56" height="7.17" transform="translate(57.25 347.75) rotate(-75.5)"/><path class="cls-2" d="M261.7,60.46c11.71-3.25,18.57-15.38,15.33-27.09-3.25-11.71-15.38-18.57-27.09-15.33-11.71,3.25-18.57,15.38-15.33,27.09,1.36,4.91,4.29,8.97,8.1,11.79l-4.8,18.57-37.64,10.44-13.68-13.44c1.81-4.37,2.23-9.36.87-14.27-3.25-11.71-15.38-18.57-27.09-15.33-11.71,3.25-18.57,15.38-15.33,27.09,3.25,11.71,15.38,18.57,27.09,15.33.99-.28,1.95-.62,2.87-1.02l13.68,13.45-12.23,47.28,35.3,34.69-5.64,21.81c-.99.13-1.99.33-2.98.61-11.71,3.25-18.57,15.38-15.33,27.09,3.25,11.71,15.38,18.57,27.09,15.33,11.71-3.25,18.57-15.38,15.33-27.09-1.36-4.91-4.29-8.97-8.1-11.79l5.8-22.44,46.44-12.88,14.62-56.53-35-34.4,4.74-18.34c.99-.13,1.99-.33,2.98-.61ZM253.59,31.23c4.43-1.23,9.02,1.37,10.24,5.8,1.23,4.43-1.37,9.02-5.8,10.24-4.43,1.23-9.02-1.37-10.24-5.8s1.37-9.02,5.8-10.24ZM158.22,66.31c-1.23-4.43,1.37-9.02,5.8-10.24,4.43-1.23,9.02,1.37,10.24,5.8,1.23,4.43-1.37,9.02-5.8,10.24-4.43,1.23-9.02-1.37-10.24-5.8ZM211.23,231.34c-4.43,1.23-9.02-1.37-10.24-5.8-1.23-4.43,1.37-9.02,5.8-10.24,4.43-1.23,9.02,1.37,10.24,5.8,1.23,4.43-1.37,9.02-5.8,10.24ZM260.84,157.05l-38.01,10.54-28.13-27.65,9.88-38.19,38.01-10.54,28.13,27.65-9.88,38.19Z"/><rect class="cls-2" x="214.83" y="105.62" width="24.56" height="7.17" transform="translate(-20.92 64.66) rotate(-15.5)"/><rect class="cls-2" x="215.83" y="133.81" width="7.17" height="24.56" transform="translate(-38.58 200.19) rotate(-45.5)"/><rect class="cls-2" x="240.43" y="133.28" width="24.56" height="7.17" transform="translate(56.93 347.25) rotate(-75.5)"/><path class="cls-8" d="M218.48,266.19c-2.9.6-5.91.92-8.99.92-21.95,0-40.16-16.02-43.57-37.01-10.14,7.37-23.78,9.38-36.14,4.1-18.71-7.98-27.41-29.62-19.42-48.33,7.98-18.71,29.62-27.41,48.33-19.42,10.68,4.56,18.09,13.56,21,23.93,4.43-4.05,9.69-7.2,15.49-9.19l-35.32-35.04,11.08-33.58c-24.39,0-44.15-19.77-44.15-44.15s19.77-44.15,44.15-44.15h49.3c-3.56-8.81-12.18-15.02-22.26-15.02h-110.98c-13.26,0-24.01,10.75-24.01,24.01v221.47c0,13.26,10.75,24.01,24.01,24.01h110.98c9.1,0,17.01-5.06,21.09-12.52h-.6Z"/><path class="cls-12" d="M186.18,205.14c-3.05.57-5.66,2.14-7.56,4.3l-8.75-3.07c.27-2.29.21-4.66-.24-7.04-2.37-12.59-14.5-20.87-27.08-18.5-12.59,2.37-20.87,14.49-18.5,27.08,2.37,12.59,14.49,20.87,27.08,18.5,6.65-1.25,12.09-5.23,15.4-10.55l8.75,3.07c.03.61.1,1.22.21,1.84,1.37,7.27,8.37,12.05,15.63,10.68,7.27-1.37,12.05-8.37,10.68-15.63-1.37-7.27-8.37-12.05-15.63-10.68ZM189.59,223.27c-2.75.52-5.39-1.29-5.91-4.04-.52-2.75,1.29-5.39,4.04-5.91s5.39,1.29,5.91,4.04c.52,2.75-1.29,5.39-4.04,5.91Z"/><path class="cls-7" d="M186.18,205.14c-3.05.57-5.66,2.14-7.56,4.3l-8.75-3.07c.27-2.29.21-4.66-.24-7.04-2.37-12.59-14.5-20.87-27.08-18.5-12.59,2.37-20.87,14.49-18.5,27.08,2.37,12.59,14.49,20.87,27.08,18.5,6.65-1.25,12.09-5.23,15.4-10.55l8.75,3.07c.03.61.1,1.22.21,1.84,1.37,7.27,8.37,12.05,15.63,10.68,7.27-1.37,12.05-8.37,10.68-15.63-1.37-7.27-8.37-12.05-15.63-10.68ZM189.59,223.27c-2.75.52-5.39-1.29-5.91-4.04-.52-2.75,1.29-5.39,4.04-5.91s5.39,1.29,5.91,4.04c.52,2.75-1.29,5.39-4.04,5.91Z"/><path class="cls-9" d="M186.1,200.45c-3.05.57-5.66,2.14-7.56,4.3l-8.75-3.07c.27-2.29.21-4.66-.24-7.04-2.37-12.59-14.5-20.87-27.08-18.5-12.59,2.37-20.87,14.49-18.5,27.08,2.37,12.59,14.49,20.87,27.08,18.5,6.65-1.25,12.09-5.23,15.4-10.55l8.75,3.07c.03.61.1,1.22.21,1.84,1.37,7.27,8.37,12.05,15.63,10.68,7.27-1.37,12.05-8.37,10.68-15.63-1.37-7.27-8.37-12.05-15.63-10.68ZM189.51,218.58c-2.75.52-5.39-1.29-5.91-4.04-.52-2.75,1.29-5.39,4.04-5.91,2.75-.52,5.39,1.29,5.91,4.04s-1.29,5.39-4.04,5.91Z"/><path class="cls-7" d="M179.97,203.36c-.51.43-.99.9-1.43,1.4l-1.89-.66"/><line class="cls-6" x1="175.41" y1="203.66" x2="172.3" y2="202.57"/><path class="cls-7" d="M171.68,202.35l-1.89-.66c.08-.66.13-1.32.15-1.99"/><path class="cls-1" d="M169.92,197.73c-.05-1.02-.18-2.05-.37-3.08-2.37-12.59-14.49-20.87-27.08-18.5-12.59,2.37-20.87,14.49-18.5,27.08,2.37,12.59,14.49,20.87,27.08,18.5,5.59-1.05,10.33-4.03,13.67-8.12"/><path class="cls-7" d="M165.33,212.83c.4-.53.78-1.08,1.13-1.65l1.89.66"/><line class="cls-4" x1="169.59" y1="212.28" x2="172.7" y2="213.37"/><path class="cls-7" d="M173.32,213.59l1.89.66c.03.61.1,1.22.21,1.84,0,.05.02.1.03.15"/><path class="cls-3" d="M176,218.21c2.2,6.04,8.52,9.78,15.05,8.55,7.27-1.37,12.05-8.37,10.68-15.63-1.37-7.27-8.37-12.05-15.63-10.68-1.99.37-3.78,1.17-5.32,2.28"/><path class="cls-5" d="M189.51,218.58c-2.75.52-5.39-1.29-5.91-4.04-.52-2.75,1.29-5.39,4.04-5.91,2.75-.52,5.39,1.29,5.91,4.04s-1.29,5.39-4.04,5.91Z"/></svg>