<?xml version="1.0" encoding="UTF-8"?><svg id="Layer_1" xmlns="http://www.w3.org/2000/svg" viewBox="0 0 354.3 287.93"><defs><style>.cls-1{fill:#ce92fc;stroke:#000;stroke-miterlimit:10;stroke-width:7.81px;}.cls-2{stroke-width:4.12px;}.cls-2,.cls-3{fill:none;stroke:#161521;stroke-linejoin:round;}.cls-4{fill:#ff945e;}.cls-5{fill:#38a0a0;}.cls-6{fill:#922748;}.cls-7{fill:#ffd364;}.cls-3{stroke-width:2.29px;}</style></defs><path class="cls-5" d="M269.27,64.81c11.71-3.25,18.57-15.38,15.33-27.09-3.25-11.71-15.38-18.57-27.09-15.33-11.71,3.25-18.57,15.38-15.33,27.09,1.36,4.91,4.29,8.97,8.1,11.79l-4.8,18.57-37.64,10.44-13.68-13.44c1.81-4.37,2.23-9.36.87-14.27-3.25-11.71-15.38-18.57-27.09-15.33-11.71,3.25-18.57,15.38-15.33,27.09,3.25,11.71,15.38,18.57,27.09,15.33.99-.28,1.95-.62,2.87-1.02l13.68,13.45-12.23,47.28,35.3,34.69-5.64,21.81c-.99.13-1.99.33-2.98.61-11.71,3.25-18.57,15.38-15.33,27.09,3.25,11.71,15.38,18.57,27.09,15.33,11.71-3.25,18.57-15.38,15.33-27.09-1.36-4.91-4.29-8.97-8.1-11.79l5.8-22.44,46.44-12.88,14.62-56.53-35-34.4,4.74-18.34c.99-.13,1.99-.33,2.98-.61ZM261.16,35.59c4.43-1.23,9.02,1.37,10.24,5.8,1.23,4.43-1.37,9.02-5.8,10.24-4.43,1.23-9.02-1.37-10.24-5.8-1.23-4.43,1.37-9.02,5.8-10.24ZM165.79,70.67c-1.23-4.43,1.37-9.02,5.8-10.24,4.43-1.23,9.02,1.37,10.24,5.8,1.23,4.43-1.37,9.02-5.8,10.24-4.43,1.23-9.02-1.37-10.24-5.8ZM218.79,235.69c-4.43,1.23-9.02-1.37-10.24-5.8-1.23-4.43,1.37-9.02,5.8-10.24,4.43-1.23,9.02,1.37,10.24,5.8,1.23,4.43-1.37,9.02-5.8,10.24ZM268.41,161.41l-38.01,10.54-28.13-27.65,9.88-38.19,38.01-10.54,28.13,27.65-9.88,38.19Z"/><rect class="cls-5" x="222.4" y="109.98" width="24.56" height="7.17" transform="translate(-21.81 66.84) rotate(-15.5)"/><rect class="cls-5" x="223.4" y="138.17" width="7.17" height="24.56" transform="translate(-39.42 206.89) rotate(-45.5)"/><rect class="cls-5" x="248" y="137.63" width="24.56" height="7.17" transform="translate(58.39 357.85) rotate(-75.5)"/><path class="cls-2" d="M268.78,64.77c11.71-3.25,18.57-15.38,15.33-27.09-3.25-11.71-15.38-18.57-27.09-15.33-11.71,3.25-18.57,15.38-15.33,27.09,1.36,4.91,4.29,8.97,8.1,11.79l-4.8,18.57-37.64,10.44-13.68-13.44c1.81-4.37,2.23-9.36.87-14.27-3.25-11.71-15.38-18.57-27.09-15.33-11.71,3.25-18.57,15.38-15.33,27.09,3.25,11.71,15.38,18.57,27.09,15.33.99-.28,1.95-.62,2.87-1.02l13.68,13.45-12.23,47.28,35.3,34.69-5.64,21.81c-.99.13-1.99.33-2.98.61-11.71,3.25-18.57,15.38-15.33,27.09,3.25,11.71,15.38,18.57,27.09,15.33,11.71-3.25,18.57-15.38,15.33-27.09-1.36-4.91-4.29-8.97-8.1-11.79l5.8-22.44,46.44-12.88,14.62-56.53-35-34.4,4.74-18.34c.99-.13,1.99-.33,2.98-.61ZM260.68,35.54c4.43-1.23,9.02,1.37,10.24,5.8,1.23,4.43-1.37,9.02-5.8,10.24-4.43,1.23-9.02-1.37-10.24-5.8-1.23-4.43,1.37-9.02,5.8-10.24ZM165.31,70.63c-1.23-4.43,1.37-9.02,5.8-10.24,4.43-1.23,9.02,1.37,10.24,5.8,1.23,4.43-1.37,9.02-5.8,10.24-4.43,1.23-9.02-1.37-10.24-5.8ZM218.31,235.65c-4.43,1.23-9.02-1.37-10.24-5.8s1.37-9.02,5.8-10.24c4.43-1.23,9.02,1.37,10.24,5.8,1.23,4.43-1.37,9.02-5.8,10.24ZM267.93,161.37l-38.01,10.54-28.13-27.65,9.88-38.19,38.01-10.54,28.13,27.65-9.88,38.19Z"/><rect class="cls-2" x="221.92" y="109.94" width="24.56" height="7.17" transform="translate(-21.82 66.71) rotate(-15.5)"/><rect class="cls-2" x="222.92" y="138.13" width="7.17" height="24.56" transform="translate(-39.54 206.53) rotate(-45.5)"/><rect class="cls-2" x="247.52" y="137.59" width="24.56" height="7.17" transform="translate(58.07 357.35) rotate(-75.5)"/><path class="cls-7" d="M262.18,60.5c11.71-3.25,18.57-15.38,15.33-27.09-3.25-11.71-15.38-18.57-27.09-15.33-11.71,3.25-18.57,15.38-15.33,27.09,1.36,4.91,4.29,8.97,8.1,11.79l-4.8,18.57-37.64,10.44-13.68-13.44c1.81-4.37,2.23-9.36.87-14.27-3.25-11.71-15.38-18.57-27.09-15.33-11.71,3.25-18.57,15.38-15.33,27.09,3.25,11.71,15.38,18.57,27.09,15.33.99-.28,1.95-.62,2.87-1.02l13.68,13.45-12.23,47.28,35.3,34.69-5.64,21.81c-.99.13-1.99.33-2.98.61-11.71,3.25-18.57,15.38-15.33,27.09,3.25,11.71,15.38,18.57,27.09,15.33,11.71-3.25,18.57-15.38,15.33-27.09-1.36-4.91-4.29-8.97-8.1-11.79l5.8-22.44,46.44-12.88,14.62-56.53-35-34.4,4.74-18.34c.99-.13,1.99-.33,2.98-.61ZM254.07,31.27c4.43-1.23,9.02,1.37,10.24,5.8,1.23,4.43-1.37,9.02-5.8,10.24-4.43,1.23-9.02-1.37-10.24-5.8-1.23-4.43,1.37-9.02,5.8-10.24ZM158.71,66.36c-1.23-4.43,1.37-9.02,5.8-10.24s9.02,1.37,10.24,5.8-1.37,9.02-5.8,10.24c-4.43,1.23-9.02-1.37-10.24-5.8ZM211.71,231.38c-4.43,1.23-9.02-1.37-10.24-5.8-1.23-4.43,1.37-9.02,5.8-10.24,4.43-1.23,9.02,1.37,10.24,5.8,1.23,4.43-1.37,9.02-5.8,10.24ZM261.33,157.1l-38.01,10.54-28.13-27.65,9.88-38.19,38.01-10.54,28.13,27.65-9.88,38.19Z"/><rect class="cls-7" x="215.31" y="105.67" width="24.56" height="7.17" transform="translate(-20.92 64.79) rotate(-15.5)"/><rect class="cls-7" x="216.31" y="133.86" width="7.17" height="24.56" transform="translate(-38.46 200.54) rotate(-45.5)"/><rect class="cls-7" x="240.91" y="133.32" width="24.56" height="7.17" transform="translate(57.25 347.75) rotate(-75.5)"/><path class="cls-2" d="M261.7,60.46c11.71-3.25,18.57-15.38,15.33-27.09-3.25-11.71-15.38-18.57-27.09-15.33-11.71,3.25-18.57,15.38-15.33,27.09,1.36,4.91,4.29,8.97,8.1,11.79l-4.8,18.57-37.64,10.44-13.68-13.44c1.81-4.37,2.23-9.36.87-14.27-3.25-11.71-15.38-18.57-27.09-15.33-11.71,3.25-18.57,15.38-15.33,27.09,3.25,11.71,15.38,18.57,27.09,15.33.99-.28,1.95-.62,2.87-1.02l13.68,13.45-12.23,47.28,35.3,34.69-5.64,21.81c-.99.13-1.99.33-2.98.61-11.71,3.25-18.57,15.38-15.33,27.09,3.25,11.71,15.38,18.57,27.09,15.33,11.71-3.25,18.57-15.38,15.33-27.09-1.36-4.91-4.29-8.97-8.1-11.79l5.8-22.44,46.44-12.88,14.62-56.53-35-34.4,4.74-18.34c.99-.13,1.99-.33,2.98-.61ZM253.59,31.23c4.43-1.23,9.02,1.37,10.24,5.8,1.23,4.43-1.37,9.02-5.8,10.24-4.43,1.23-9.02-1.37-10.24-5.8s1.37-9.02,5.8-10.24ZM158.22,66.31c-1.23-4.43,1.37-9.02,5.8-10.24,4.43-1.23,9.02,1.37,10.24,5.8,1.23,4.43-1.37,9.02-5.8,10.24-4.43,1.23-9.02-1.37-10.24-5.8ZM211.23,231.34c-4.43,1.23-9.02-1.37-10.24-5.8-1.23-4.43,1.37-9.02,5.8-10.24,4.43-1.23,9.02,1.37,10.24,5.8,1.23,4.43-1.37,9.02-5.8,10.24ZM260.84,157.05l-38.01,10.54-28.13-27.65,9.88-38.19,38.01-10.54,28.13,27.65-9.88,38.19Z"/><rect class="cls-2" x="214.83" y="105.62" width="24.56" height="7.17" transform="translate(-20.92 64.66) rotate(-15.5)"/><rect class="cls-2" x="215.83" y="133.81" width="7.17" height="24.56" transform="translate(-38.58 200.19) rotate(-45.5)"/><rect class="cls-2" x="240.43" y="133.28" width="24.56" height="7.17" transform="translate(56.93 347.25) rotate(-75.5)"/><path class="cls-1" d="M218.48,266.19c-2.9.6-5.91.92-8.99.92-21.95,0-40.16-16.02-43.57-37.01-10.14,7.37-23.78,9.38-36.14,4.1-18.71-7.98-27.41-29.62-19.42-48.33,7.98-18.71,29.62-27.41,48.33-19.42,10.68,4.56,18.09,13.56,21,23.93,4.43-4.05,9.69-7.2,15.49-9.19l-35.32-35.04,11.08-33.58c-24.39,0-44.15-19.77-44.15-44.15s19.77-44.15,44.15-44.15h49.3c-3.56-8.81-12.18-15.02-22.26-15.02h-110.98c-13.26,0-24.01,10.75-24.01,24.01v221.47c0,13.26,10.75,24.01,24.01,24.01h110.98c9.1,0,17.01-5.06,21.09-12.52h-.6Z"/><path class="cls-6" d="M186.23,205.02c-3.07.47-5.73,1.94-7.7,4.04l-8.64-3.37c.35-2.28.37-4.65,0-7.05-1.93-12.66-13.76-21.36-26.42-19.42-12.66,1.93-21.36,13.76-19.42,26.42s13.76,21.36,26.42,19.42c6.69-1.02,12.26-4.8,15.76-10.01l8.64,3.37c0,.61.06,1.22.15,1.84,1.12,7.31,7.95,12.33,15.25,11.21s12.33-7.95,11.21-15.25c-1.12-7.31-7.95-12.33-15.25-11.21ZM189.01,223.26c-2.76.42-5.35-1.48-5.77-4.24s1.48-5.35,4.24-5.77c2.76-.42,5.35,1.48,5.77,4.24s-1.48,5.35-4.24,5.77Z"/><path class="cls-3" d="M186.23,205.02c-3.07.47-5.73,1.94-7.7,4.04l-8.64-3.37c.35-2.28.37-4.65,0-7.05-1.93-12.66-13.76-21.36-26.42-19.42-12.66,1.93-21.36,13.76-19.42,26.42s13.76,21.36,26.42,19.42c6.69-1.02,12.26-4.8,15.76-10.01l8.64,3.37c0,.61.06,1.22.15,1.84,1.12,7.31,7.95,12.33,15.25,11.21s12.33-7.95,11.21-15.25c-1.12-7.31-7.95-12.33-15.25-11.21ZM189.01,223.26c-2.76.42-5.35-1.48-5.77-4.24s1.48-5.35,4.24-5.77c2.76-.42,5.35,1.48,5.77,4.24s-1.48,5.35-4.24,5.77Z"/><path class="cls-4" d="M186.31,200.33c-3.07.47-5.73,1.94-7.7,4.04l-8.64-3.37c.35-2.28.37-4.65,0-7.05-1.93-12.66-13.76-21.36-26.42-19.42-12.66,1.93-21.36,13.76-19.42,26.42,1.93,12.66,13.76,21.36,26.42,19.42,6.69-1.02,12.26-4.8,15.76-10.01l8.64,3.37c0,.61.06,1.22.15,1.84,1.12,7.31,7.95,12.33,15.25,11.21,7.31-1.12,12.33-7.95,11.21-15.25-1.12-7.31-7.95-12.33-15.25-11.21ZM189.1,218.57c-2.76.42-5.35-1.48-5.77-4.24-.42-2.76,1.48-5.35,4.24-5.77s5.35,1.48,5.77,4.24-1.48,5.35-4.24,5.77Z"/><path class="cls-3" d="M186.31,200.33c-3.07.47-5.73,1.94-7.7,4.04l-8.64-3.37c.35-2.28.37-4.65,0-7.05-1.93-12.66-13.76-21.36-26.42-19.42-12.66,1.93-21.36,13.76-19.42,26.42,1.93,12.66,13.76,21.36,26.42,19.42,6.69-1.02,12.26-4.8,15.76-10.01l8.64,3.37c0,.61.06,1.22.15,1.84,1.12,7.31,7.95,12.33,15.25,11.21,7.31-1.12,12.33-7.95,11.21-15.25-1.12-7.31-7.95-12.33-15.25-11.21ZM189.1,218.57c-2.76.42-5.35-1.48-5.77-4.24-.42-2.76,1.48-5.35,4.24-5.77s5.35,1.48,5.77,4.24-1.48,5.35-4.24,5.77Z"/></svg>